<svg width="368" height="307" viewBox="0 0 368 307" fill="none" xmlns="http://www.w3.org/2000/svg">
<path d="M131.267 131.882H131.443M236.731 237.412H236.906M254.308 114.294L113.69 255M359.771 184.647C359.771 281.783 281.074 360.529 183.999 360.529C86.9225 360.529 8.22656 281.783 8.22656 184.647C8.22656 87.5098 86.9225 8.76465 183.999 8.76465C281.074 8.76465 359.771 87.5098 359.771 184.647ZM140.056 131.882C140.056 136.739 136.121 140.676 131.267 140.676C126.413 140.676 122.479 136.739 122.479 131.882C122.479 127.025 126.413 123.088 131.267 123.088C136.121 123.088 140.056 127.025 140.056 131.882ZM245.519 237.412C245.519 242.268 241.584 246.206 236.731 246.206C231.878 246.206 227.942 242.268 227.942 237.412C227.942 232.556 231.878 228.618 236.731 228.618C241.584 228.618 245.519 232.556 245.519 237.412Z" stroke="white" stroke-opacity="0.2" stroke-width="16" stroke-linecap="round" stroke-linejoin="round"/>
</svg>
