<svg width="492" height="320" viewBox="0 0 492 320" fill="none" xmlns="http://www.w3.org/2000/svg">
<g clip-path="url(#clip0_492_6333)">
<path d="M177 91H177.23M315 229H315.23M338 68L154 252M476 160C476 287.024 373.024 390 246 390C118.974 390 16 287.024 16 160C16 32.9744 118.974 -70 246 -70C373.024 -70 476 32.9744 476 160ZM188.5 91C188.5 97.3512 183.351 102.5 177 102.5C170.649 102.5 165.5 97.3512 165.5 91C165.5 84.6488 170.649 79.5 177 79.5C183.351 79.5 188.5 84.6488 188.5 91ZM326.5 229C326.5 235.35 321.35 240.5 315 240.5C308.65 240.5 303.5 235.35 303.5 229C303.5 222.65 308.65 217.5 315 217.5C321.35 217.5 326.5 222.65 326.5 229Z" stroke="white" stroke-width="16" stroke-linecap="round" stroke-linejoin="round"/>
</g>
<defs>
<clipPath id="clip0_492_6333">
<rect width="492" height="320" fill="white"/>
</clipPath>
</defs>
</svg>
