<svg width="492" height="412" viewBox="0 0 492 412" fill="none" xmlns="http://www.w3.org/2000/svg">
<g clip-path="url(#clip0_492_3159)">
<path d="M177 183H177.23M315 321H315.23M338 160L154 344M476 252C476 379.024 373.024 482 246 482C118.974 482 16 379.024 16 252C16 124.974 118.974 22 246 22C373.024 22 476 124.974 476 252ZM188.5 183C188.5 189.351 183.351 194.5 177 194.5C170.649 194.5 165.5 189.351 165.5 183C165.5 176.649 170.649 171.5 177 171.5C183.351 171.5 188.5 176.649 188.5 183ZM326.5 321C326.5 327.35 321.35 332.5 315 332.5C308.65 332.5 303.5 327.35 303.5 321C303.5 314.65 308.65 309.5 315 309.5C321.35 309.5 326.5 314.65 326.5 321Z" stroke="#24262C" stroke-opacity="0.1" stroke-width="16" stroke-linecap="round" stroke-linejoin="round"/>
</g>
<defs>
<clipPath id="clip0_492_3159">
<rect width="492" height="412" fill="white"/>
</clipPath>
</defs>
</svg>
