<svg width="43" height="222" viewBox="0 0 43 222" fill="none" xmlns="http://www.w3.org/2000/svg">
<g clip-path="url(#clip0_492_10275)">
<path d="M-81.6361 66.3118L-81.6361 66.3118C-83.5691 67.807 -84.9626 70.5781 -85.8748 73.5814C-86.7383 76.424 -87.1955 79.5577 -87.2469 82.2156H-102.366L-102.432 82.0858C-102.498 77.6298 -101.747 72.7208 -100.18 68.2539C-98.5973 63.7449 -96.1953 59.7226 -92.9983 57.0602C-86.5275 51.6745 -78.2741 48.9617 -68.2047 48.9617C-57.1672 48.9617 -48.6627 51.7733 -42.6214 57.3383L-42.2827 56.9705L-42.6214 57.3383C-36.5887 62.895 -33.5521 70.6682 -33.5521 80.7245C-33.5521 87.9118 -35.5149 94.4796 -39.436 100.437C-43.397 106.445 -48.6335 112.599 -55.1656 118.899L-55.1657 118.899L-55.1721 118.905C-58.2442 121.978 -60.1663 124.794 -60.8448 127.344C-61.4895 129.757 -61.8147 133.428 -61.8353 138.319H-77.517C-77.4395 130.41 -76.7344 124.993 -75.449 121.995L-75.4489 121.995C-74.1429 118.944 -70.6594 114.831 -64.9003 109.637L-64.8752 109.614L-64.8533 109.588C-59.2662 102.977 -55.269 97.8777 -52.8766 94.2979L-52.8762 94.2973C-50.443 90.6458 -49.2438 86.2542 -49.2438 81.1475C-49.2438 75.0795 -50.8608 70.3332 -54.1719 66.9933L-54.1721 66.9931C-57.487 63.6534 -62.1855 62.0171 -68.201 62.0171C-73.4378 62.0171 -77.9266 63.4433 -81.6361 66.3118ZM-178.5 111C-178.5 49.9729 -129.027 0.5 -68 0.5C-6.96924 0.5 42.5037 49.9729 42.5037 111C42.5037 172.031 -6.96944 221.5 -68 221.5C-129.027 221.5 -178.5 172.031 -178.5 111ZM-165.625 111C-165.625 164.829 -121.832 208.844 -68 208.844C-14.1682 208.844 29.6287 164.828 29.6287 111C29.6287 57.1696 -14.1698 13.3746 -68 13.3746C-121.83 13.3746 -165.625 57.1694 -165.625 111ZM-61.2468 156.427V173.041H-77.7016V156.427H-61.2468Z" stroke="white" stroke-opacity="0.3"/>
</g>
<defs>
<clipPath id="clip0_492_10275">
<rect width="43" height="222" fill="white"/>
</clipPath>
</defs>
</svg>
