<svg width="159" height="222" viewBox="0 0 159 222" fill="none" xmlns="http://www.w3.org/2000/svg">
<g clip-path="url(#clip0_492_10253)">
<path d="M97.3639 66.3118L97.3639 66.3118C95.4309 67.807 94.0374 70.5781 93.1252 73.5814C92.2617 76.424 91.8045 79.5577 91.7531 82.2156H76.6337L76.568 82.0858C76.5021 77.6298 77.2526 72.7208 78.8202 68.2539C80.4027 63.7449 82.8047 59.7226 86.0017 57.0602C92.4725 51.6745 100.726 48.9617 110.795 48.9617C121.833 48.9617 130.337 51.7733 136.379 57.3383L136.717 56.9705L136.379 57.3383C142.411 62.895 145.448 70.6682 145.448 80.7245C145.448 87.9118 143.485 94.4796 139.564 100.437C135.603 106.445 130.367 112.599 123.834 118.899L123.834 118.899L123.828 118.905C120.756 121.978 118.834 124.794 118.155 127.344C117.51 129.757 117.185 133.428 117.165 138.319H101.483C101.56 130.41 102.266 124.993 103.551 121.995L103.551 121.995C104.857 118.944 108.341 114.831 114.1 109.637L114.125 109.614L114.147 109.588C119.734 102.977 123.731 97.8777 126.123 94.2979L126.124 94.2973C128.557 90.6458 129.756 86.2542 129.756 81.1475C129.756 75.0795 128.139 70.3332 124.828 66.9933L124.828 66.9931C121.513 63.6534 116.815 62.0171 110.799 62.0171C105.562 62.0171 101.073 63.4433 97.3639 66.3118ZM0.5 111C0.5 49.9729 49.9729 0.5 111 0.5C172.031 0.5 221.504 49.9729 221.504 111C221.504 172.031 172.031 221.5 111 221.5C49.9729 221.5 0.5 172.031 0.5 111ZM13.375 111C13.375 164.829 57.1684 208.844 111 208.844C164.832 208.844 208.629 164.828 208.629 111C208.629 57.1696 164.83 13.3746 111 13.3746C57.1698 13.3746 13.375 57.1694 13.375 111ZM117.753 156.427V173.041H101.298V156.427H117.753Z" stroke="white" stroke-opacity="0.3"/>
</g>
<defs>
<clipPath id="clip0_492_10253">
<rect width="159" height="222" fill="white"/>
</clipPath>
</defs>
</svg>
