<svg width="12" height="13" viewBox="0 0 12 13" fill="none" xmlns="http://www.w3.org/2000/svg">
<path d="M3.96935 11.2731C3.82874 11.1324 3.74976 10.9417 3.74976 10.7428C3.74976 10.544 3.82874 10.3532 3.96935 10.2126L7.68185 6.50009L3.96935 2.78759C3.83273 2.64613 3.75713 2.45668 3.75884 2.26003C3.76055 2.06339 3.83943 1.87528 3.97848 1.73622C4.11754 1.59716 4.30565 1.51829 4.5023 1.51658C4.69894 1.51487 4.8884 1.59047 5.02985 1.72709L9.2726 5.96984C9.4132 6.11048 9.49219 6.30121 9.49219 6.50009C9.49219 6.69896 9.4132 6.88969 9.2726 7.03034L5.02985 11.2731C4.8892 11.4137 4.69847 11.4927 4.4996 11.4927C4.30072 11.4927 4.10999 11.4137 3.96935 11.2731Z" fill="currentColor"/>
</svg>
