<svg width="30" height="30" viewBox="0 0 30 30" fill="none" xmlns="http://www.w3.org/2000/svg">
<path d="M29.5312 18.8677H28.9453V16.2895C28.9453 15.4224 28.2984 14.7661 27.4219 14.7661H24.6094C24.5508 14.7661 24.4805 14.7345 24.4406 14.6946L20.0578 10.429C19.8609 10.2321 19.6219 10.088 19.3359 10.0786H16.1719V20.8599H20.8594C20.9672 20.8599 21.0738 20.7239 21.0938 20.6255C21.3891 18.931 22.8316 17.6454 24.6141 17.6454C26.3977 17.6454 27.8742 18.9356 28.1695 20.6302C28.1895 20.738 28.3687 20.8599 28.4766 20.8599H28.7109C29.2723 20.8599 29.7656 20.3536 29.7656 19.8028V19.0739C29.7656 18.9649 29.6496 18.8677 29.5312 18.8677ZM22.3828 14.7661H17.5781C17.4598 14.7661 17.3438 14.6508 17.3438 14.5336L17.3391 11.5024C17.3391 11.3841 17.4598 11.2505 17.5781 11.2505H19.1016C19.1602 11.2505 19.2797 11.3149 19.3289 11.3548L22.5 14.4145C22.6184 14.5622 22.5703 14.7661 22.3828 14.7661ZM0.234375 5.89619V10.7067H5.03906V8.60674L9.28711 12.1153L5.03906 15.6239V13.5192H0.234375V19.8567C0.234375 20.3817 0.646875 20.8599 1.17188 20.8599H3.75C3.85781 20.8599 3.96445 20.7239 3.98438 20.6255C4.27969 18.931 5.78086 17.7603 7.56328 17.7603C9.3457 17.7603 10.8234 18.9356 11.1187 20.6302C11.1387 20.738 11.2594 20.8599 11.3672 20.8599H15.2344V5.85986L0.234375 5.89619ZM24.6141 18.5712C23.1176 18.5712 21.9059 19.7829 21.9059 21.2794C21.9059 22.7771 23.1176 23.9888 24.6141 23.9888C26.1117 23.9888 27.3234 22.7771 27.3234 21.2794C27.3234 19.7829 26.1117 18.5712 24.6141 18.5712ZM24.6141 22.3177C24.0457 22.3177 23.577 21.8489 23.577 21.2794C23.577 20.711 24.0457 20.2423 24.6141 20.2423C25.1836 20.2423 25.6523 20.711 25.6523 21.2794C25.6523 21.8489 25.1836 22.3177 24.6141 22.3177ZM7.56328 18.6872C6.06563 18.6872 4.85508 19.8978 4.85508 21.3954C4.85508 22.8919 6.06563 24.1036 7.56328 24.1036C9.05977 24.1036 10.2715 22.8919 10.2715 21.3954C10.2715 19.8978 9.05977 18.6872 7.56328 18.6872ZM7.56328 22.4325C6.99492 22.4325 6.52617 21.9638 6.52617 21.3954C6.52617 20.8271 6.99492 20.3583 7.56328 20.3583C8.13164 20.3583 8.60039 20.8271 8.60039 21.3954C8.60039 21.9638 8.13164 22.4325 7.56328 22.4325Z" fill="currentColor"/>
</svg>
