<svg width="28" height="28" viewBox="0 0 28 28" fill="none" xmlns="http://www.w3.org/2000/svg">
<path d="M28.0044 16.1442L24.3906 12.3905L28.0044 9.27551V16.1442Z" fill="currentColor"/>
<path d="M3.61813 12.3905L0 16.1486V9.27551L3.61813 12.3905Z" fill="currentColor"/>
<path d="M28 19.5563V23.0125C28 23.8482 27.3219 24.5263 26.4862 24.5263H1.51375C0.67807 24.5263 0 23.8482 0 23.0125V19.5563L5.41182 13.9387L11.5938 19.263C12.2369 19.8144 13.0899 20.1207 14 20.1207C14.9101 20.1207 15.7675 19.8144 16.4106 19.263L22.5881 13.9387L28 19.5563Z" fill="currentColor"/>
<path d="M28 4.98313V6.49688L14.7961 17.8719C14.3718 18.2394 13.6281 18.2394 13.2037 17.8719L0 6.49688V4.98313C0 4.14756 0.678016 3.47375 1.51375 3.47375H26.4862C27.3219 3.47375 28 4.14756 28 4.98313Z" fill="currentColor"/>
</svg>
