<svg width="20" height="20" viewBox="0 0 20 20" fill="none" xmlns="http://www.w3.org/2000/svg">
<path d="M14.7816 0H8.13641H7.62172L7.25789 0.363828L2.22715 5.39461L1.86328 5.75844V6.27312V16.6447C1.86328 18.4948 3.36828 20 5.21859 20H14.7816C16.6316 20 18.1366 18.4948 18.1366 16.6447V3.35527C18.1366 1.505 16.6316 0 14.7816 0ZM16.8942 16.6447C16.8942 17.8118 15.9484 18.7577 14.7816 18.7577H5.21859C4.05152 18.7577 3.10566 17.8118 3.10566 16.6447V6.27309H6.37586C7.34789 6.27309 8.13641 5.48484 8.13641 4.51254V1.24234H14.7816C15.9484 1.24234 16.8942 2.1882 16.8942 3.35527V16.6447Z" fill="currentColor"/>
<path d="M14.329 3.63965H10.8379V7.13078H14.329V3.63965Z" fill="currentColor"/>
<path d="M14.3279 9.08545H5.66992V10.0629H14.3279V9.08545Z" fill="currentColor"/>
<path d="M14.3279 11.8784H5.66992V12.8559H14.3279V11.8784Z" fill="currentColor"/>
<path d="M14.3279 14.6714H5.66992V15.6489H14.3279V14.6714Z" fill="currentColor"/>
</svg>
