<svg width="22" height="22" viewBox="0 0 22 22" fill="none" xmlns="http://www.w3.org/2000/svg">
<path fill-rule="evenodd" clip-rule="evenodd" d="M9.08265 3.6666C9.11105 3.66665 9.1395 3.6667 9.16797 3.6667C9.19648 3.6667 9.22489 3.66665 9.25331 3.6666C9.59129 3.66604 9.92349 3.66549 10.2194 3.74478C11.0103 3.95669 11.6279 4.5744 11.8399 5.36524C11.9192 5.66117 11.9186 5.99338 11.9181 6.33137C11.9181 6.35978 11.918 6.38823 11.918 6.4167H19.2513C19.7576 6.4167 20.168 6.8271 20.168 7.33336C20.168 7.83962 19.7576 8.25003 19.2513 8.25003H11.918C11.918 8.2785 11.9181 8.30695 11.9181 8.33535C11.9186 8.67335 11.9192 9.00556 11.8399 9.30153C11.6279 10.0923 11.0103 10.7101 10.2194 10.9219C9.92349 11.0012 9.59129 11.0007 9.25331 11.0001C9.22489 11.0001 9.19648 11 9.16797 11C9.1395 11 9.11105 11.0001 9.08265 11.0001C8.74465 11.0007 8.41244 11.0012 8.11651 10.9219C7.32567 10.7101 6.70796 10.0923 6.49606 9.30153C6.41676 9.00555 6.41731 8.67335 6.41788 8.33535C6.41792 8.30695 6.41797 8.27849 6.41797 8.25003H4.58464C4.07838 8.25003 3.66797 7.83962 3.66797 7.33336C3.66797 6.8271 4.07838 6.4167 4.58464 6.4167H6.41797C6.41797 6.38823 6.41792 6.35978 6.41788 6.33137C6.41731 5.99338 6.41676 5.66117 6.49606 5.36524C6.70796 4.5744 7.32567 3.95669 8.11651 3.74478C8.41244 3.66549 8.74465 3.66604 9.08265 3.6666ZM8.70836 5.50494C8.61059 5.50939 8.58758 5.51657 8.59101 5.51564C8.43284 5.55803 8.3093 5.68157 8.26692 5.83974C8.26615 5.84296 8.26013 5.87112 8.25621 5.95708C8.25152 6.05978 8.2513 6.19527 8.2513 6.4167V8.25003C8.2513 8.47145 8.25152 8.60694 8.25621 8.70964C8.26066 8.80741 8.26784 8.83041 8.26692 8.82699C8.3093 8.98515 8.43284 9.1087 8.59101 9.15108C8.58758 9.15016 8.61059 9.15733 8.70836 9.16179C8.81105 9.16648 8.94654 9.16669 9.16797 9.16669C9.38944 9.16669 9.52492 9.16648 9.62759 9.16179C9.7253 9.15733 9.74831 9.15016 9.74492 9.15108C9.90314 9.1087 10.0266 8.98515 10.0691 8.82699C10.0681 8.83041 10.0753 8.80741 10.0797 8.70964C10.0845 8.60694 10.0846 8.47145 10.0846 8.25003V6.4167C10.0846 6.19527 10.0845 6.05978 10.0797 5.95708C10.0753 5.85932 10.0681 5.83631 10.0691 5.83974M8.70836 5.50494C8.81105 5.50025 8.94654 5.50003 9.16797 5.50003L8.70836 5.50494ZM9.16797 5.50003C9.38944 5.50003 9.52492 5.50025 9.62759 5.50494L9.16797 5.50003ZM9.62759 5.50494C9.71357 5.50885 9.74171 5.51487 9.74492 5.51564L9.62759 5.50494ZM14.5826 10.9999C14.611 11 14.6395 11 14.668 11C14.6965 11 14.7249 11 14.7533 10.9999C15.0913 10.9994 15.4235 10.9988 15.7194 11.0781C16.5103 11.2901 17.1279 11.9077 17.3399 12.6986C17.4192 12.9945 17.4186 13.3267 17.4181 13.6647C17.4181 13.6931 17.418 13.7215 17.418 13.75H19.2513C19.7576 13.75 20.168 14.1604 20.168 14.6667C20.168 15.173 19.7576 15.5834 19.2513 15.5834H17.418C17.418 15.6119 17.4181 15.6403 17.4181 15.6687C17.4186 16.0067 17.4192 16.3389 17.3399 16.6349C17.1279 17.4257 16.5103 18.0434 15.7194 18.2553C15.4235 18.3345 15.0913 18.334 14.7533 18.3334C14.7249 18.3334 14.6965 18.3334 14.668 18.3334C14.6395 18.3334 14.611 18.3334 14.5826 18.3334C14.2447 18.334 13.9125 18.3345 13.6166 18.2553C12.8257 18.0434 12.208 17.4257 11.9961 16.6349C11.9168 16.3389 11.9173 16.0067 11.9179 15.6687C11.9179 15.6403 11.918 15.6119 11.918 15.5834H4.58464C4.07838 15.5834 3.66797 15.173 3.66797 14.6667C3.66797 14.1604 4.07838 13.75 4.58464 13.75H11.918C11.918 13.7216 11.9179 13.6931 11.9179 13.6647C11.9173 13.3267 11.9168 12.9945 11.9961 12.6986C12.208 11.9077 12.8257 11.2901 13.6166 11.0781C13.9125 10.9988 14.2447 10.9994 14.5826 10.9999ZM14.2084 12.8383C14.1106 12.8427 14.0876 12.8499 14.091 12.8489C13.9328 12.8914 13.8093 13.0149 13.7669 13.1731C13.7678 13.1697 13.7607 13.1927 13.7563 13.2904C13.7515 13.3931 13.7513 13.5286 13.7513 13.75V15.5834C13.7513 15.8048 13.7515 15.9403 13.7563 16.043C13.7607 16.1408 13.7678 16.1638 13.7669 16.1603C13.8093 16.3185 13.9328 16.442 14.091 16.4844C14.0876 16.4835 14.1106 16.4907 14.2084 16.4952C14.311 16.4998 14.4465 16.5 14.668 16.5C14.8894 16.5 15.0249 16.4998 15.1276 16.4952C15.2253 16.4907 15.2483 16.4835 15.2449 16.4844C15.4031 16.442 15.5266 16.3185 15.5691 16.1603C15.5681 16.1638 15.5753 16.1408 15.5797 16.043C15.5845 15.9403 15.5846 15.8048 15.5846 15.5834V13.75C15.5846 13.5286 15.5845 13.3931 15.5797 13.2904C15.5753 13.1927 15.5681 13.1697 15.5691 13.1731C15.5266 13.0149 15.4031 12.8914 15.2449 12.8489C15.2483 12.8499 15.2253 12.8427 15.1276 12.8383C15.0249 12.8335 14.8894 12.8334 14.668 12.8334C14.4465 12.8334 14.311 12.8335 14.2084 12.8383Z" fill="currentColor"/>
</svg>
