<svg width="14" height="15" viewBox="0 0 14 15" fill="none" xmlns="http://www.w3.org/2000/svg">
<path d="M12.6605 7.08563L7.4105 1.83563C7.35628 1.78096 7.29176 1.73756 7.22067 1.70795C7.14959 1.67833 7.07334 1.66309 6.99634 1.66309C6.91933 1.66309 6.84309 1.67833 6.772 1.70795C6.70092 1.73756 6.6364 1.78096 6.58217 1.83563L1.33217 7.08563C1.25123 7.16767 1.1964 7.27183 1.1746 7.38499C1.15279 7.49815 1.165 7.61524 1.20967 7.72147C1.25343 7.828 1.32775 7.91919 1.42325 7.98355C1.51876 8.04791 1.63117 8.08256 1.74634 8.08313H2.32967V12.3415C2.34031 12.6143 2.4586 12.8719 2.65866 13.0577C2.85873 13.2436 3.12427 13.3426 3.39717 13.3331H4.95467C5.10938 13.3331 5.25775 13.2717 5.36715 13.1623C5.47655 13.0529 5.538 12.9045 5.538 12.7498V9.89147C5.538 9.73676 5.59946 9.58839 5.70886 9.47899C5.81826 9.36959 5.96663 9.30814 6.12134 9.30814H7.87134C8.02605 9.30814 8.17442 9.36959 8.28382 9.47899C8.39321 9.58839 8.45467 9.73676 8.45467 9.89147V12.7498C8.45467 12.9045 8.51613 13.0529 8.62553 13.1623C8.73492 13.2717 8.88329 13.3331 9.038 13.3331H10.5955C10.8684 13.3426 11.1339 13.2436 11.334 13.0577C11.5341 12.8719 11.6524 12.6143 11.663 12.3415V8.08313H12.2463C12.3615 8.08256 12.4739 8.04791 12.5694 7.98355C12.6649 7.91919 12.7392 7.828 12.783 7.72147C12.8277 7.61524 12.8399 7.49815 12.8181 7.38499C12.7963 7.27183 12.7414 7.16767 12.6605 7.08563Z" fill="currentColor"/>
</svg>
