<svg width="24" height="24" viewBox="0 0 24 24" fill="none" xmlns="http://www.w3.org/2000/svg">
<path d="M7.56563 2.00977C4.50092 2.00977 2.01562 4.49506 2.01562 7.55977V16.4398C2.01562 19.5045 4.50092 21.9898 7.56563 21.9898H16.4456C19.5103 21.9898 21.9956 19.5045 21.9956 16.4398V7.55977C21.9956 4.49506 19.5103 2.00977 16.4456 2.00977H7.56563ZM18.6656 4.22977C19.2783 4.22977 19.7756 4.72705 19.7756 5.33977C19.7756 5.95249 19.2783 6.44977 18.6656 6.44977C18.0529 6.44977 17.5556 5.95249 17.5556 5.33977C17.5556 4.72705 18.0529 4.22977 18.6656 4.22977ZM12.0056 6.44977C15.0703 6.44977 17.5556 8.93506 17.5556 11.9998C17.5556 15.0645 15.0703 17.5498 12.0056 17.5498C8.94092 17.5498 6.45563 15.0645 6.45563 11.9998C6.45563 8.93506 8.94092 6.44977 12.0056 6.44977ZM12.0056 8.66977C10.1665 8.66977 8.67562 10.1607 8.67562 11.9998C8.67562 13.8389 10.1665 15.3298 12.0056 15.3298C13.8447 15.3298 15.3356 13.8389 15.3356 11.9998C15.3356 10.1607 13.8447 8.66977 12.0056 8.66977Z" fill="currentColor"/>
</svg>
