<svg width="18" height="18" viewBox="0 0 18 18" fill="none" xmlns="http://www.w3.org/2000/svg">
<path d="M17.1027 15.5361H5.06613C4.57004 15.5361 4.16797 15.134 4.16797 14.6379C4.16797 14.1418 4.57004 13.7397 5.06613 13.7397H17.1024C17.5984 13.7397 18.0005 14.1418 18.0005 14.6379C18.0005 15.134 17.5987 15.5361 17.1027 15.5361Z" fill="currentColor"/>
<path d="M17.1027 9.89837H5.06613C4.57004 9.89837 4.16797 9.49629 4.16797 9.00021C4.16797 8.50413 4.57004 8.10205 5.06613 8.10205H17.1024C17.5984 8.10205 18.0005 8.50413 18.0005 9.00021C18.0008 9.49629 17.5987 9.89837 17.1027 9.89837Z" fill="currentColor"/>
<path d="M17.1027 4.26067H5.06613C4.57004 4.26067 4.16797 3.8586 4.16797 3.36251C4.16797 2.86643 4.57004 2.46436 5.06613 2.46436H17.1024C17.5984 2.46436 18.0005 2.86643 18.0005 3.36251C18.0005 3.8586 17.5987 4.26067 17.1027 4.26067Z" fill="currentColor"/>
<path d="M1.20623 4.63804C1.87241 4.63804 2.41245 4.09799 2.41245 3.43181C2.41245 2.76563 1.87241 2.22559 1.20623 2.22559C0.540046 2.22559 0 2.76563 0 3.43181C0 4.09799 0.540046 4.63804 1.20623 4.63804Z" fill="currentColor"/>
<path d="M1.20623 10.2064C1.87241 10.2064 2.41245 9.66635 2.41245 9.00017C2.41245 8.33399 1.87241 7.79395 1.20623 7.79395C0.540046 7.79395 0 8.33399 0 9.00017C0 9.66635 0.540046 10.2064 1.20623 10.2064Z" fill="currentColor"/>
<path d="M1.20623 15.7748C1.87241 15.7748 2.41245 15.2347 2.41245 14.5685C2.41245 13.9024 1.87241 13.3623 1.20623 13.3623C0.540046 13.3623 0 13.9024 0 14.5685C0 15.2347 0.540046 15.7748 1.20623 15.7748Z" fill="currentColor"/>
</svg>
