<svg width="24" height="24" viewBox="0 0 24 24" fill="none" xmlns="http://www.w3.org/2000/svg">
<path d="M12.0017 12.1479C15.3496 12.1479 18.0631 9.43392 18.0631 6.08541C18.063 2.73689 15.3496 0.0234375 12.0017 0.0234375C8.65254 0.0234375 5.93797 2.73689 5.93797 6.08541C5.93792 9.43392 8.65254 12.1479 12.0017 12.1479ZM12.0017 3.10294C13.6484 3.10294 14.9835 4.43803 14.9835 6.08536C14.9835 7.73273 13.6484 9.06778 12.0017 9.06778C10.3532 9.06778 9.01864 7.73273 9.01864 6.08536C9.01864 4.43803 10.3531 3.10294 12.0017 3.10294ZM18.9887 12.8877C18.6472 12.2 17.6993 11.6281 16.439 12.6205C14.7355 13.962 12.0016 13.962 12.0016 13.962C12.0016 13.962 9.26595 13.962 7.56247 12.6205C6.30279 11.6281 5.35545 12.2 5.01336 12.8877C4.4157 14.086 5.08995 14.6655 6.61161 15.6421C7.91103 16.4767 9.69697 16.7883 10.8496 16.9047L9.88704 17.8673C8.53151 19.2222 7.22333 20.5316 6.31512 21.4398C5.77184 21.9825 5.77184 22.8626 6.31512 23.4053L6.47825 23.5696C7.02153 24.1123 7.90109 24.1123 8.44433 23.5696L12.0162 19.9971C13.373 21.3527 14.6811 22.6614 15.5893 23.5696C16.1326 24.1123 17.0121 24.1123 17.5554 23.5696L17.7185 23.4053C18.2618 22.862 18.2618 21.9825 17.7185 21.4392L14.1466 17.8673L13.1817 16.9018C14.3355 16.7825 16.1015 16.4696 17.3904 15.6422C18.9121 14.6655 19.5852 14.0859 18.9887 12.8877Z" fill="currentColor"/>
</svg>
