<svg width="26" height="26" viewBox="0 0 26 26" fill="none" xmlns="http://www.w3.org/2000/svg">
<path d="M19.2156 0H10.5769H9.90749L9.43446 0.472977L2.89485 7.01299L2.42188 7.48597V8.15506V21.6382C2.42188 24.0432 4.37838 26 6.78378 26H19.2156C21.6202 26 23.5767 24.0432 23.5767 21.6382V4.36191C23.5767 1.9565 21.6202 0 19.2156 0ZM21.962 21.6381C21.962 23.1553 20.7324 24.385 19.2156 24.385H6.78378C5.26623 24.385 4.03662 23.1553 4.03662 21.6381V8.15501H8.28782C9.55151 8.15501 10.5769 7.13035 10.5769 5.8663V1.61505H19.2156C20.7324 1.61505 21.962 2.84466 21.962 4.36191V21.6381Z" fill="currentColor"/>
<path d="M8.72967 12.8369H7.28093C7.00509 12.8369 6.83984 13.0163 6.83984 13.2851V17.0304C6.83984 17.3548 7.05333 17.5686 7.34974 17.5686C7.63975 17.5686 7.85318 17.3548 7.85318 17.0304V15.8926C7.85318 15.8649 7.86735 15.8511 7.89503 15.8511H8.72967C9.75012 15.8511 10.3642 15.2302 10.3642 14.3474C10.3643 13.4507 9.75723 12.8369 8.72967 12.8369ZM8.66731 14.975H7.89503C7.86735 14.975 7.85318 14.9611 7.85318 14.9338V13.7542C7.85318 13.7265 7.86735 13.7127 7.89503 13.7127H8.66731C9.09489 13.7127 9.35016 13.968 9.35016 14.3474C9.35021 14.7267 9.09489 14.975 8.66731 14.975Z" fill="currentColor"/>
<path d="M12.7039 12.8369H11.5934C11.3176 12.8369 11.1523 13.0163 11.1523 13.2851V17.0857C11.1523 17.3548 11.3175 17.5271 11.5934 17.5271H12.7039C13.7038 17.5271 14.325 17.2098 14.5732 16.4443C14.6625 16.1751 14.7114 15.8511 14.7114 15.182C14.7114 14.5129 14.6625 14.1889 14.5732 13.9198C14.325 13.1542 13.7038 12.8369 12.7039 12.8369ZM13.601 16.0926C13.4833 16.4648 13.1457 16.6237 12.6762 16.6237H12.2075C12.1799 16.6237 12.1657 16.6099 12.1657 16.5822V13.7819C12.1657 13.7542 12.1799 13.7404 12.2075 13.7404H12.6762C13.1457 13.7404 13.4833 13.8992 13.601 14.2715C13.6492 14.4304 13.6832 14.7062 13.6832 15.182C13.6832 15.6579 13.6492 15.9337 13.601 16.0926Z" fill="currentColor"/>
<path d="M18.3385 12.8369H16.0629C15.787 12.8369 15.6211 13.0163 15.6211 13.2851V17.0304C15.6211 17.3548 15.8353 17.5686 16.1317 17.5686C16.421 17.5686 16.6351 17.3548 16.6351 17.0304V15.6922C16.6351 15.6649 16.6486 15.6511 16.6763 15.6511H18.001C18.2974 15.6511 18.4697 15.4718 18.4697 15.2164C18.4697 14.9611 18.2974 14.7821 18.001 14.7821H16.6763C16.6486 14.7821 16.6351 14.7683 16.6351 14.7406V13.7542C16.6351 13.7265 16.6486 13.7127 16.6763 13.7127H18.3385C18.6215 13.7127 18.808 13.5266 18.808 13.2784C18.8079 13.023 18.6214 12.8369 18.3385 12.8369Z" fill="currentColor"/>
</svg>
