<svg width="28" height="28" viewBox="0 0 28 28" fill="none" xmlns="http://www.w3.org/2000/svg">
<path d="M18.1489 16.9723L17.6175 17.5317C17.6175 17.5317 16.3544 18.8615 12.9069 15.2319C9.45947 11.6023 10.7225 10.2726 10.7225 10.2726L11.0571 9.9203C11.8814 9.05245 11.9591 7.65913 11.2399 6.64195L9.7688 4.56121C8.87866 3.30225 7.15862 3.13594 6.13836 4.21008L4.30716 6.138C3.80127 6.6706 3.46226 7.36103 3.50337 8.12693C3.60854 10.0864 4.44583 14.3022 9.11792 19.2211C14.0724 24.4372 18.7213 24.6446 20.6223 24.4569C21.2236 24.3976 21.7465 24.0733 22.1679 23.6297L23.8253 21.8848C24.944 20.707 24.6286 18.6879 23.1972 17.864L20.9683 16.581C20.0284 16.04 18.8834 16.1989 18.1489 16.9723Z" fill="currentColor"/>
<path d="M15.4642 2.19281C15.5414 1.71577 15.9923 1.39218 16.4694 1.4694C16.4989 1.47506 16.594 1.49281 16.6437 1.5039C16.7433 1.52607 16.8822 1.5602 17.0553 1.61063C17.4016 1.71148 17.8853 1.87763 18.4658 2.14378C19.6281 2.67666 21.1749 3.60883 22.78 5.21393C24.3851 6.81903 25.3173 8.36581 25.8501 9.52814C26.1163 10.1087 26.2825 10.5924 26.3833 10.9386C26.4337 11.1118 26.4678 11.2506 26.49 11.3502C26.5011 11.4 26.5093 11.4399 26.5149 11.4695L26.5216 11.5059C26.5987 11.9829 26.2781 12.4526 25.8011 12.5298C25.3254 12.6068 24.8773 12.2847 24.7982 11.81C24.7958 11.7971 24.789 11.7629 24.7819 11.7306C24.7674 11.666 24.7426 11.5635 24.7031 11.428C24.6242 11.157 24.4871 10.7541 24.2593 10.2575C23.8046 9.26543 22.9867 7.89555 21.5425 6.45137C20.0984 5.0072 18.7285 4.18938 17.7365 3.73457C17.2399 3.50689 16.837 3.36977 16.5659 3.29081C16.4304 3.25134 16.2601 3.21225 16.1955 3.19786C15.7206 3.11873 15.3872 2.66849 15.4642 2.19281Z" fill="currentColor"/>
<path fill-rule="evenodd" clip-rule="evenodd" d="M15.737 6.21786C15.8698 5.7532 16.3541 5.48414 16.8187 5.6169L16.5784 6.45824C16.8187 5.6169 16.8187 5.6169 16.8187 5.6169L16.8205 5.61739L16.8222 5.6179L16.8261 5.61903L16.8352 5.62174L16.8583 5.62893C16.8758 5.63455 16.8978 5.64188 16.924 5.65117C16.9764 5.66977 17.0456 5.69621 17.1306 5.73261C17.3006 5.80545 17.5327 5.91794 17.8181 6.08677C18.3891 6.42473 19.1686 6.98611 20.0845 7.90191C21.0003 8.81772 21.5616 9.59726 21.8996 10.1683C22.0684 10.4536 22.1809 10.6858 22.2538 10.8558C22.2902 10.9407 22.3167 11.01 22.3352 11.0624C22.3445 11.0886 22.3518 11.1105 22.3575 11.1281L22.3646 11.1512L22.3673 11.1602L22.3684 11.1641L22.3689 11.1659C22.3689 11.1659 22.3695 11.1676 21.5281 11.408L22.3695 11.1676C22.5023 11.6323 22.2331 12.1165 21.7685 12.2493C21.3078 12.3809 20.8278 12.1176 20.6902 11.6602L20.6859 11.6476C20.6797 11.63 20.6669 11.5955 20.6453 11.5451C20.6021 11.4444 20.5238 11.2796 20.3936 11.0596C20.1335 10.6201 19.6636 9.95596 18.847 9.13934C18.0304 8.32274 17.3663 7.85292 16.9268 7.59279C16.7067 7.46256 16.542 7.38428 16.4412 7.34111C16.3908 7.31952 16.3563 7.30664 16.3388 7.30042L16.3262 7.29612C15.8688 7.15859 15.6054 6.67856 15.737 6.21786Z" fill="currentColor"/>
</svg>
