<svg width="20" height="20" viewBox="0 0 20 20" fill="none" xmlns="http://www.w3.org/2000/svg">
<path fill-rule="evenodd" clip-rule="evenodd" d="M10 18.75C5.1675 18.75 1.25 14.8313 1.25 10C1.25 5.16875 5.1675 1.25 10 1.25C14.8325 1.25 18.75 5.16875 18.75 10C18.75 14.8313 14.8325 18.75 10 18.75ZM10 0C4.47688 0 0 4.475 0 10C0 15.525 4.47688 20 10 20C15.5231 20 20 15.525 20 10C20 4.475 15.5231 0 10 0ZM13.75 9.375H10.625V6.25C10.625 5.90625 10.3456 5.625 10 5.625C9.65438 5.625 9.375 5.90625 9.375 6.25V9.375H6.25C5.90438 9.375 5.625 9.65625 5.625 10C5.625 10.3438 5.90438 10.625 6.25 10.625H9.375V13.75C9.375 14.0938 9.65438 14.375 10 14.375C10.3456 14.375 10.625 14.0938 10.625 13.75V10.625H13.75C14.0956 10.625 14.375 10.3438 14.375 10C14.375 9.65625 14.0956 9.375 13.75 9.375Z" fill="currentColor"/>
</svg>
