<svg width="90" height="90" viewBox="0 0 90 90" fill="none" xmlns="http://www.w3.org/2000/svg">
<path d="M32.377 32.4937H32.4191M57.6209 57.5062H57.663M61.8282 28.325L28.1697 61.675M87.0721 45C87.0721 68.0232 68.2351 86.6875 44.999 86.6875C21.7626 86.6875 2.92578 68.0232 2.92578 45C2.92578 21.9766 21.7626 3.3125 44.999 3.3125C68.2351 3.3125 87.0721 21.9766 87.0721 45ZM34.4807 32.4937C34.4807 33.6449 33.5388 34.5781 32.377 34.5781C31.2152 34.5781 30.2733 33.6449 30.2733 32.4937C30.2733 31.3426 31.2152 30.4094 32.377 30.4094C33.5388 30.4094 34.4807 31.3426 34.4807 32.4937ZM59.7246 57.5062C59.7246 58.6572 58.7825 59.5906 57.6209 59.5906C56.4593 59.5906 55.5172 58.6572 55.5172 57.5062C55.5172 56.3553 56.4593 55.4219 57.6209 55.4219C58.7825 55.4219 59.7246 56.3553 59.7246 57.5062Z" stroke="currentColor" stroke-width="6" stroke-linecap="round" stroke-linejoin="round"/>
</svg>
