<svg width="24" height="24" viewBox="0 0 24 24" fill="none" xmlns="http://www.w3.org/2000/svg">
<path d="M22.7948 9.18984C22.6401 5.0632 19.8687 1.60655 16.0913 0.431063V7.26525C17.6553 7.65675 18.8156 9.06787 18.8156 10.7535C18.8156 12.7415 17.2038 14.3534 15.2157 14.3534C15.0462 14.3534 14.8805 14.3374 14.7174 14.315C14.6201 14.5981 14.5 14.8862 14.3465 15.1743C13.857 16.0921 13.0406 16.9925 11.8058 17.5527C11.2672 17.7975 10.6447 17.9685 9.95032 18.0631C9.76751 18.4568 9.37146 18.7316 8.90861 18.7316H7.3503C6.71487 18.7316 6.1999 18.2167 6.1999 17.5815C6.1999 16.9454 6.71487 16.4304 7.3503 16.4304H8.90861C9.29205 16.4304 9.62918 16.6197 9.83819 16.9081C10.8583 16.7637 11.615 16.4125 12.1885 15.969C12.9148 15.4054 13.3564 14.6715 13.6027 13.9688C12.4257 13.3766 11.6157 12.1612 11.6157 10.7535C11.6157 9.13819 12.6799 7.77112 14.1454 7.31541V0.0425625C13.8509 0.0152344 13.5526 0 13.2508 0C7.97477 0 3.69799 4.27641 3.69682 9.55247C2.98497 10.9229 1.27774 14.4035 1.27774 14.4035C1.14663 14.6657 1.14171 14.9732 1.26447 15.2397C1.38719 15.5061 1.624 15.7018 1.90825 15.7733L3.46957 16.164C3.46957 16.164 4.26461 19.7548 4.4463 20.5882C4.72071 21.85 5.1289 22.1233 6.32229 22.1233C7.5168 22.1233 8.92872 21.7368 8.92872 21.7368V24H19.1645V20.4175C19.1645 19.1208 19.5218 17.4937 20.5296 16.2772C22.5565 13.8311 22.9506 11.214 22.7948 9.18984Z" fill="currentColor"/>
</svg>
