<svg width="24" height="24" viewBox="0 0 24 24" fill="none" xmlns="http://www.w3.org/2000/svg">
<path d="M23.453 5.78376C23.183 6.63276 22.819 7.37176 22.363 8.04276L22.382 8.01276C21.934 8.75942 21.399 9.62209 20.777 10.6008C20.2437 11.3734 19.9613 11.7734 19.93 11.8008C19.792 11.9738 19.696 12.1858 19.663 12.4188L19.662 12.4258C19.689 12.6378 19.787 12.8228 19.93 12.9608L20.33 13.4068C22.47 15.6061 23.6737 17.1221 23.941 17.9548C23.976 18.0468 23.996 18.1528 23.996 18.2638C23.996 18.4578 23.934 18.6368 23.829 18.7838L23.831 18.7808C23.655 18.9618 23.409 19.0738 23.137 19.0738C23.107 19.0738 23.076 19.0728 23.047 19.0698H23.051H20.42C20.419 19.0698 20.417 19.0698 20.415 19.0698C20.078 19.0698 19.768 18.9518 19.525 18.7558L19.528 18.7578C19.174 18.4668 18.859 18.1518 18.577 17.8098L18.568 17.7978C18.1073 17.2771 17.6987 16.8388 17.342 16.4828C16.154 15.3534 15.2773 14.7888 14.712 14.7888C14.691 14.7868 14.667 14.7858 14.642 14.7858C14.477 14.7858 14.323 14.8368 14.196 14.9238L14.199 14.9218C14.095 15.0518 14.032 15.2198 14.032 15.4008C14.032 15.4368 14.034 15.4708 14.039 15.5058V15.5018C14.012 15.8158 13.996 16.1808 13.996 16.5498C13.996 16.6688 13.998 16.7868 14.001 16.9048V16.8878V18.0468C14.011 18.0938 14.017 18.1478 14.017 18.2028C14.017 18.4448 13.907 18.6608 13.735 18.8038L13.734 18.8048C13.347 18.9818 12.895 19.0858 12.418 19.0858C12.316 19.0858 12.216 19.0808 12.117 19.0718L12.13 19.0728C10.556 19.0428 9.096 18.5818 7.855 17.8048L7.89 17.8248C6.379 16.9068 5.127 15.7118 4.173 14.2998L4.146 14.2578C3.24 13.0558 2.395 11.6978 1.675 10.2658L1.605 10.1118C1.184 9.30976 0.748 8.32376 0.372 7.30976L0.312 7.12476C0.159 6.66876 0.048 6.13876 0.002 5.58976L0 5.56476C0 5.05942 0.297333 4.80676 0.892 4.80676H3.522C3.546 4.80476 3.574 4.80376 3.603 4.80376C3.851 4.80376 4.08 4.88876 4.261 5.03176L4.259 5.02976C4.459 5.24876 4.607 5.51776 4.68 5.81776L4.683 5.82976C5.167 7.19676 5.68 8.34476 6.27 9.44476L6.203 9.30776C6.685 10.2778 7.218 11.1128 7.826 11.8838L7.803 11.8528C8.33633 12.5074 8.75233 12.8348 9.051 12.8348C9.06 12.8358 9.071 12.8358 9.083 12.8358C9.231 12.8358 9.36 12.7558 9.43 12.6358L9.431 12.6338C9.505 12.4438 9.548 12.2228 9.548 11.9928C9.548 11.9438 9.546 11.8948 9.542 11.8468V11.8528V7.97376C9.521 7.51676 9.409 7.08976 9.222 6.70676L9.23 6.72576C9.106 6.46176 8.957 6.23376 8.78 6.03076L8.783 6.03476C8.619 5.87076 8.507 5.65576 8.472 5.41576L8.471 5.40976C8.471 5.23976 8.549 5.08676 8.671 4.98676L8.672 4.98576C8.793 4.87476 8.955 4.80776 9.132 4.80776H9.14H13.286C13.308 4.80476 13.333 4.80376 13.359 4.80376C13.554 4.80376 13.729 4.89176 13.845 5.02976L13.846 5.03076C13.949 5.21876 14.01 5.44376 14.01 5.68176C14.01 5.71976 14.008 5.75676 14.005 5.79376V5.78876V10.9618C14.003 10.9858 14.002 11.0138 14.002 11.0418C14.002 11.2258 14.053 11.3988 14.141 11.5458L14.139 11.5418C14.212 11.6498 14.334 11.7198 14.472 11.7198C14.648 11.7078 14.809 11.6498 14.944 11.5578L14.941 11.5598C15.213 11.3728 15.447 11.1598 15.65 10.9188L15.654 10.9138C16.261 10.2278 16.821 9.46976 17.309 8.66376L17.348 8.59376C17.692 8.02376 18.064 7.32176 18.401 6.60076L18.463 6.45376L18.909 5.56176C19.064 5.11576 19.48 4.80176 19.969 4.80176C19.988 4.80176 20.007 4.80176 20.026 4.80276H20.023H22.654C23.3647 4.80276 23.6313 5.12976 23.454 5.78376H23.453Z" fill="currentColor"/>
</svg>
