<svg width="20" height="20" viewBox="0 0 20 20" fill="none" xmlns="http://www.w3.org/2000/svg">
<path fill-rule="evenodd" clip-rule="evenodd" d="M7.81726 10.0003C7.81726 11.2034 8.79462 12.1808 9.99778 12.1808C11.2009 12.1808 12.1783 11.2034 12.1783 10.0003V9.98215C11.9455 10.2183 11.6261 10.3637 11.2697 10.3637C10.5681 10.3637 9.99778 9.79315 9.99778 9.09175C9.99778 8.58671 10.2955 8.14683 10.721 7.94327C10.4957 7.86339 10.2523 7.81979 9.99778 7.81979C8.79462 7.81975 7.81726 8.79727 7.81726 10.0003ZM18.2329 8.76091C16.8807 7.04211 13.5884 4.18555 10.0013 4.18555C6.41082 4.18555 3.11482 7.04215 1.76262 8.76091C1.45742 9.15347 1.29026 9.57867 1.2793 10.0003C1.2903 10.4219 1.45742 10.8471 1.76262 11.2396C3.11486 12.9587 6.40722 15.8149 9.99778 15.8149C13.5883 15.8149 16.8807 12.9587 18.2329 11.2396C18.5416 10.8471 18.7088 10.4219 18.7198 10.0003C18.7088 9.57867 18.5416 9.15347 18.2329 8.76091ZM9.99778 13.6344C7.9919 13.6344 6.36358 12.0063 6.36358 10.0003C6.36358 7.99423 7.9919 6.36607 9.99778 6.36607C12.0036 6.36607 13.6319 7.99423 13.6319 10.0003C13.6319 12.0062 12.0036 13.6344 9.99778 13.6344Z" fill="currentColor"/>
</svg>
