<svg width="24" height="24" viewBox="0 0 24 24" fill="none" xmlns="http://www.w3.org/2000/svg">
<g clip-path="url(#clip0_492_8068)">
<path d="M13.3821 4.27295H5.20061C4.59806 4.27295 4.10938 4.76163 4.10938 5.36367C4.10938 5.96572 4.59806 6.4544 5.20061 6.4544H13.3821C13.9856 6.4544 14.4733 5.96572 14.4733 5.36367C14.4728 4.76163 13.9851 4.27295 13.3821 4.27295Z" fill="white"/>
<path d="M14.4728 9.45449C14.4728 8.85194 13.9851 8.36377 13.3815 8.36377H5.20061C4.59806 8.36377 4.10938 8.85245 4.10938 9.45449C4.10938 10.057 4.59806 10.5457 5.20061 10.5457H13.3821C13.9851 10.5457 14.4728 10.057 14.4728 9.45449Z" fill="white"/>
<path d="M9.29184 14.6365C9.8944 14.6365 10.3826 14.1479 10.3826 13.5458C10.3826 12.9433 9.8944 12.4546 9.29184 12.4546H5.20061C4.59806 12.4546 4.10938 12.9433 4.10938 13.5458C4.10938 14.1484 4.59806 14.6365 5.20061 14.6365H9.29184Z" fill="white"/>
<path d="M17.5234 18.3472L16.379 19.1025V21.818H2.19758V2.18196H16.379V6.49277L18.561 2.71353V1.09072C18.561 0.48817 18.0723 0 17.4698 0H1.10635C0.503795 0 0.015625 0.488681 0.015625 1.09072V22.9098C0.015625 23.5123 0.503795 24.0005 1.10635 24.0005H17.4698C18.0728 24.0005 18.5615 23.5118 18.5615 22.9098V16.897L18.0401 17.7988C17.913 18.0189 17.7343 18.2083 17.5234 18.3472Z" fill="white"/>
<path d="M23.9748 5.05242C23.9523 4.95438 23.722 4.07302 22.3341 3.27132C20.9462 2.47012 20.0679 2.71114 19.9709 2.74127C19.8407 2.78263 19.7309 2.87046 19.6625 2.98893L12.8444 14.798C12.802 14.872 12.777 14.9542 12.7719 15.039L12.5166 19.3003C12.5043 19.5065 12.6095 19.7016 12.7877 19.8053C12.9675 19.9084 13.1886 19.9013 13.3612 19.7884L16.9239 17.4364C16.9949 17.3905 17.0536 17.3277 17.096 17.2546L23.9145 5.44357C23.983 5.3251 24.0039 5.18621 23.9748 5.05242ZM14.7358 17.9006C14.5545 17.754 14.3488 17.6157 14.1277 17.4875C13.9055 17.3593 13.6829 17.2516 13.4654 17.1668L13.5414 15.8892C13.8259 15.9265 14.2477 16.0419 14.7833 16.3503C15.3185 16.6592 15.6284 16.9677 15.8041 17.1949L14.7358 17.9006Z" fill="white"/>
<path d="M7.61539 19.6771C7.65113 19.8961 7.9039 19.964 8.07292 20.0345C8.23632 20.1034 8.43139 19.9727 8.56722 19.9069C9.39956 19.5019 10.527 19.9778 11.4186 19.9778C11.9461 19.9778 11.9461 19.1598 11.4186 19.1598C10.379 19.1598 9.51394 18.8968 8.48347 19.0669C8.48347 19.0071 8.46151 18.9264 8.39717 18.8166C8.20466 18.4873 7.95956 18.3938 7.71394 18.4337C7.6976 18.3949 7.68177 18.356 7.65879 18.3167C7.59445 18.2115 7.50458 18.1589 7.40347 18.137C7.69096 17.6345 7.87632 17.1029 7.6879 16.673C7.6302 16.5423 7.46628 16.4754 7.33454 16.4703C6.78815 16.4498 6.31939 17.0233 5.96807 17.3674C5.08926 18.2289 4.31513 19.2068 3.56603 20.18C3.24432 20.5983 3.95564 21.0047 4.27224 20.5937C4.93607 19.7317 5.63922 18.8948 6.39598 18.112C6.21369 18.4112 6.02015 18.7048 5.81641 18.9877C5.52535 19.4376 6.22032 19.8206 6.52262 19.4008C6.59462 19.291 6.68603 19.2119 6.78611 19.144C6.7662 19.1945 6.74577 19.244 6.72534 19.2951C6.72637 19.2951 6.72739 19.2956 6.72841 19.2961C6.71258 19.3288 6.69675 19.3615 6.68398 19.3926C6.50117 19.8507 7.1839 20.0606 7.43207 19.7072C7.49488 19.6183 7.55309 19.5234 7.60569 19.4238C7.60211 19.4922 7.60058 19.5841 7.61539 19.6771Z" fill="white"/>
</g>
<defs>
<clipPath id="clip0_492_8068">
<rect width="24" height="24" fill="white"/>
</clipPath>
</defs>
</svg>
