<svg width="24" height="24" viewBox="0 0 24 24" fill="none" xmlns="http://www.w3.org/2000/svg">
<g clip-path="url(#clip0_492_8045)">
<path d="M12 0C5.38312 0 0 5.38331 0 12C0 18.6171 5.38312 24 12 24C18.6169 24 24 18.6171 24 12C24 5.38331 18.6169 0 12 0ZM12 21.143C6.95873 21.143 2.85717 17.0416 2.85717 12C2.85717 6.95873 6.95873 2.85717 12 2.85717C17.0413 2.85717 21.1428 6.95873 21.1428 12C21.1428 17.0416 17.0413 21.143 12 21.143Z" fill="white"/>
<path d="M11.6072 5.30246C12.0522 5.25685 11.9322 5.25596 12.3714 5.29969L12.5126 3.87807C11.9783 3.82515 12.0107 3.82515 11.4531 3.8821L11.5137 4.59385L11.6072 5.30246Z" fill="white"/>
<path d="M12.3586 18.6982C11.9136 18.744 12.0336 18.7446 11.5943 18.701L11.4531 20.1226C11.9875 20.1755 11.9551 20.1755 12.5126 20.1184L12.4521 19.4065L12.3586 18.6982Z" fill="white"/>
<path d="M20.1234 11.4702L19.4115 11.5308L18.7031 11.6244C18.7487 12.0693 18.7495 11.9494 18.7058 12.3885L20.1275 12.5297C20.1804 11.9954 20.1804 12.0278 20.1234 11.4702Z" fill="white"/>
<path d="M5.30457 11.6114L3.88294 11.4702C3.83002 12.0045 3.83002 11.9723 3.88707 12.5297L4.59886 12.4693L5.30728 12.3757C5.26172 11.9307 5.26088 12.0507 5.30457 11.6114Z" fill="white"/>
<path d="M8.24293 8.93863L6.80469 10.3765L9.87672 13.4494L11.315 12.0115L8.24293 8.93863Z" fill="white"/>
<path d="M17.4005 7.13519L10.4453 14.0903L11.8834 15.5284L18.8386 8.57329L17.4005 7.13519Z" fill="white"/>
</g>
<defs>
<clipPath id="clip0_492_8045">
<rect width="24" height="24" fill="white"/>
</clipPath>
</defs>
</svg>
