<svg width="24" height="24" viewBox="0 0 24 24" fill="none" xmlns="http://www.w3.org/2000/svg">
<g clip-path="url(#clip0_492_8054)">
<path d="M20.7496 18.2347L19.8481 17.3058C20.1565 17.3433 20.4523 17.147 20.5304 16.8378C20.6151 16.5023 20.4119 16.1616 20.0763 16.0768L17.9519 15.5402C17.738 15.4862 17.5114 15.5487 17.3554 15.7047C17.1994 15.8606 17.1369 16.0872 17.191 16.3011L17.7276 18.4254C17.7994 18.7094 18.0544 18.8987 18.3346 18.8987C18.3854 18.8987 18.4371 18.8924 18.4885 18.8794C18.8017 18.8003 18.9994 18.4982 18.9555 18.1855L19.8503 19.1074C19.9732 19.234 20.1364 19.2976 20.3 19.2976C20.4571 19.2976 20.6146 19.2388 20.7363 19.1207C20.9846 18.8796 20.9906 18.483 20.7496 18.2347Z" fill="white"/>
<path d="M10.3418 11.3213C10.3024 11.2169 10.2023 11.1476 10.0906 11.1476C10.0904 11.1476 10.0902 11.1476 10.09 11.1476L9.63755 11.1485C9.52551 11.1487 9.42548 11.2183 9.38641 11.3233L7.8137 15.5486C7.78311 15.6311 7.79468 15.7232 7.8448 15.7956C7.895 15.8677 7.97734 15.9108 8.06528 15.9108H8.4746C8.58671 15.9108 8.68711 15.8412 8.72625 15.7359L9.19137 14.4864H10.5507L11.0221 15.737C11.0616 15.8416 11.1615 15.9108 11.2733 15.9108H11.6832C11.6837 15.9108 11.6842 15.9108 11.6848 15.9108C11.8331 15.9108 11.9533 15.7905 11.9533 15.6422C11.9533 15.5989 11.9429 15.5579 11.9247 15.5216L10.3418 11.3213ZM9.53406 13.5658L9.86694 12.6716L10.204 13.5658H9.53406Z" fill="white"/>
<path d="M13.776 11.1292H12.6122C12.464 11.1292 12.3438 11.2494 12.3438 11.3977V15.6167C12.3438 15.7649 12.4639 15.8851 12.6122 15.8851H13.776C15.1131 15.8851 16.2008 14.8197 16.2008 13.51C16.2009 12.1973 15.1132 11.1292 13.776 11.1292ZM13.776 14.9647H13.2643V12.0498H13.776C14.6055 12.0498 15.2803 12.7047 15.2803 13.51C15.2804 14.3121 14.6055 14.9647 13.776 14.9647Z" fill="white"/>
<path d="M22.71 0.623779H1.28996C0.578712 0.623779 0 1.20249 0 1.91374V22.0862C0 22.7974 0.578712 23.3761 1.28996 23.3761H22.71C23.4213 23.3761 24 22.7974 24 22.0862V1.91374C24 1.20242 23.4213 0.623779 22.71 0.623779ZM20.1576 2.60169C20.7469 2.60169 21.2264 3.08119 21.2264 3.67051C21.2264 4.25984 20.7469 4.73933 20.1576 4.73933C19.5683 4.73933 19.0888 4.25984 19.0888 3.67051C19.0888 3.08119 19.5683 2.60169 20.1576 2.60169ZM16.5331 2.60169C17.1225 2.60169 17.602 3.08119 17.602 3.67051C17.602 4.25984 17.1225 4.73933 16.5331 4.73933C15.9438 4.73933 15.4643 4.25984 15.4643 3.67051C15.4643 3.08119 15.9438 2.60169 16.5331 2.60169ZM3.27273 3.11767H7.58488C7.89019 3.11767 8.13772 3.3652 8.13772 3.67051C8.13772 3.97583 7.89019 4.22335 7.58488 4.22335H3.27273C2.96742 4.22335 2.71989 3.97583 2.71989 3.67051C2.71989 3.3652 2.96742 3.11767 3.27273 3.11767ZM21.9511 21.141C21.9511 21.2337 21.8756 21.3092 21.7827 21.3092H2.21725C2.12445 21.3092 2.0489 21.2337 2.0489 21.141V7.24849H21.9511V21.141Z" fill="white"/>
</g>
<defs>
<clipPath id="clip0_492_8054">
<rect width="24" height="24" fill="white"/>
</clipPath>
</defs>
</svg>
