<svg width="24" height="24" viewBox="0 0 24 24" fill="none" xmlns="http://www.w3.org/2000/svg">
<g clip-path="url(#clip0_492_8062)">
<path d="M24.001 6.4436L10.0625 15.9456V22.0839L24.001 12.3833V6.4436Z" fill="white"/>
<path d="M8.95911 15.7319L0.0229289 12.1464L0 18.9466L8.95911 22.3044V15.7319Z" fill="white"/>
<path d="M9.56581 14.7179L23.6208 5.11887L14.4209 1.69556L0.3125 10.889L9.56581 14.7179ZM13.757 9.68063L10.0798 12.1975C9.54847 12.561 8.74454 12.6659 8.29806 12.4331L7.51427 12.0241C7.09449 11.8053 7.18067 11.3555 7.69368 11.0192L11.2557 8.68416C11.727 8.37496 12.4654 8.26252 12.9171 8.43307L13.7585 8.75118C14.2367 8.9324 14.2423 9.34851 13.757 9.68063ZM18.5099 4.71594L19.3986 4.94832C19.9032 5.08045 19.9772 5.42336 19.5513 5.71526L16.3337 7.91722C15.8704 8.2344 15.0921 8.35105 14.6091 8.17771L13.7597 7.87317C13.3039 7.70968 13.3099 7.33767 13.7611 7.04205L16.9005 4.98394C17.3167 4.7108 18.032 4.59091 18.5099 4.71594ZM10.262 6.01133L13.296 4.11906C13.6998 3.86748 14.3576 3.75225 14.7755 3.8614L15.5512 4.06428C15.9907 4.17952 16.0212 4.4892 15.6075 4.75671L12.4943 6.77077C12.0473 7.05983 11.3371 7.17276 10.9192 7.02328L10.1827 6.7595C9.78741 6.61713 9.82719 6.2826 10.262 6.01133ZM4.43808 9.64315L7.8511 7.51478C8.30414 7.23229 8.98069 7.12313 9.37229 7.27114L10.1008 7.54663C10.5141 7.70262 10.4803 8.07414 10.0137 8.37633L6.48962 10.656C5.98225 10.9844 5.25137 11.088 4.86907 10.8884L4.1963 10.5375C3.83468 10.3491 3.94756 9.94907 4.43808 9.64315Z" fill="white"/>
</g>
<defs>
<clipPath id="clip0_492_8062">
<rect width="24" height="24" fill="white"/>
</clipPath>
</defs>
</svg>
