<svg width="12" height="10" viewBox="0 0 12 10" fill="none" xmlns="http://www.w3.org/2000/svg">
<path d="M0 10V6.71296C0 5.44753 0.192593 4.27469 0.577778 3.19444C0.992593 2.1142 1.68889 1.04938 2.66667 0L4.4 1.34259C3.62963 2.23765 3.0963 3.05555 2.8 3.7963C2.53333 4.50617 2.4 5.26235 2.4 6.06481L1.33333 5.27778H4.53333V10H0ZM7.46667 10V6.71296C7.46667 5.44753 7.65926 4.27469 8.04445 3.19444C8.45926 2.1142 9.15556 1.04938 10.1333 0L11.8667 1.34259C11.0963 2.23765 10.563 3.05555 10.2667 3.7963C10 4.50617 9.86667 5.26235 9.86667 6.06481L8.8 5.27778H12V10H7.46667Z" fill="white"/>
</svg>
