<svg width="0" height="0" class="hidden">
  <symbol fill="none" xmlns="http://www.w3.org/2000/svg" viewBox="0 0 8 14" id="ic_arr_hor">
    <path d="M7.43305 6.34535C7.75848 6.72112 7.75848 7.27888 7.43305 7.65465L2.25593 13.6327C1.64979 14.3326 0.499999 13.9039 0.499999 12.978L0.5 1.02197C0.5 0.0960876 1.64979 -0.332586 2.25593 0.367318L7.43305 6.34535Z" fill="currentColor"></path>
  </symbol>
  <symbol fill="none" xmlns="http://www.w3.org/2000/svg" viewBox="0 0 12 13" id="ic_arr_hor2">
    <path d="M3.96935 11.2731C3.82874 11.1324 3.74976 10.9417 3.74976 10.7428C3.74976 10.544 3.82874 10.3532 3.96935 10.2126L7.68185 6.50009L3.96935 2.78759C3.83273 2.64613 3.75713 2.45668 3.75884 2.26003C3.76055 2.06339 3.83943 1.87528 3.97848 1.73622C4.11754 1.59716 4.30565 1.51829 4.5023 1.51658C4.69894 1.51487 4.8884 1.59047 5.02985 1.72709L9.2726 5.96984C9.4132 6.11048 9.49219 6.30121 9.49219 6.50009C9.49219 6.69896 9.4132 6.88969 9.2726 7.03034L5.02985 11.2731C4.8892 11.4137 4.69847 11.4927 4.4996 11.4927C4.30072 11.4927 4.10999 11.4137 3.96935 11.2731Z" fill="currentColor"></path>
  </symbol>
  <symbol fill="none" xmlns="http://www.w3.org/2000/svg" viewBox="0 0 12 7" id="ic_arr_ver">
    <path d="M6 6.5L0.803848 0.500001L11.1962 0.5L6 6.5Z" fill="currentColor"></path>
  </symbol>
  <symbol fill="none" xmlns="http://www.w3.org/2000/svg" viewBox="0 0 17 12" id="ic_arrow_hor">
    <path d="M0.434315 5.43432C0.121895 5.74674 0.121895 6.25327 0.434315 6.56569L5.52548 11.6569C5.8379 11.9693 6.34444 11.9693 6.65686 11.6569C6.96927 11.3444 6.96927 10.8379 6.65686 10.5255L2.13137 6L6.65685 1.47452C6.96927 1.1621 6.96927 0.655566 6.65685 0.343147C6.34443 0.0307274 5.8379 0.0307274 5.52548 0.343147L0.434315 5.43432ZM17 5.2L1 5.2L1 6.8L17 6.8L17 5.2Z" fill="currentColor"></path>
  </symbol>
  <symbol fill="none" xmlns="http://www.w3.org/2000/svg" viewBox="0 0 28 28" id="ic_arrow_link">
    <path d="M8.17188 8.16699L19.8385 19.8337M19.8385 19.8337V8.16699M19.8385 19.8337H8.17188" stroke="currentColor" stroke-width="3" stroke-linecap="round" stroke-linejoin="round"></path>
  </symbol>
  <symbol fill="none" xmlns="http://www.w3.org/2000/svg" viewBox="0 0 26 26" id="ic_buy">
    <path d="M3.25 10.8335H22.75M3.25 10.8335L5.41667 21.6668H20.5833L22.75 10.8335M3.25 10.8335L9.75 4.3335M22.75 10.8335L16.25 4.3335" stroke="currentColor" stroke-width="1.5" stroke-linecap="round" stroke-linejoin="round"></path>
  </symbol>
  <symbol fill="none" xmlns="http://www.w3.org/2000/svg" viewBox="0 0 14 14" id="ic_check">
    <path d="M2.33203 6.86411L5.03006 9.29527C5.08643 9.34598 5.17776 9.34606 5.23414 9.29527L11.6654 3.5" stroke="currentColor" stroke-width="1.5" stroke-linecap="round" stroke-linejoin="round"></path>
  </symbol>
  <symbol fill="none" xmlns="http://www.w3.org/2000/svg" viewBox="0 0 14 14" id="ic_delete">
    <path d="M12.25 1.75L1.75 12.25" stroke="currentColor" stroke-width="2" stroke-linecap="round"></path>
    <path d="M1.75 1.75L12.25 12.25" stroke="currentColor" stroke-width="2" stroke-linecap="round"></path>
  </symbol>
  <symbol fill="none" xmlns="http://www.w3.org/2000/svg" viewBox="0 0 30 30" id="ic_delivery">
    <path d="M29.5312 18.8677H28.9453V16.2895C28.9453 15.4224 28.2984 14.7661 27.4219 14.7661H24.6094C24.5508 14.7661 24.4805 14.7345 24.4406 14.6946L20.0578 10.429C19.8609 10.2321 19.6219 10.088 19.3359 10.0786H16.1719V20.8599H20.8594C20.9672 20.8599 21.0738 20.7239 21.0938 20.6255C21.3891 18.931 22.8316 17.6454 24.6141 17.6454C26.3977 17.6454 27.8742 18.9356 28.1695 20.6302C28.1895 20.738 28.3687 20.8599 28.4766 20.8599H28.7109C29.2723 20.8599 29.7656 20.3536 29.7656 19.8028V19.0739C29.7656 18.9649 29.6496 18.8677 29.5312 18.8677ZM22.3828 14.7661H17.5781C17.4598 14.7661 17.3438 14.6508 17.3438 14.5336L17.3391 11.5024C17.3391 11.3841 17.4598 11.2505 17.5781 11.2505H19.1016C19.1602 11.2505 19.2797 11.3149 19.3289 11.3548L22.5 14.4145C22.6184 14.5622 22.5703 14.7661 22.3828 14.7661ZM0.234375 5.89619V10.7067H5.03906V8.60674L9.28711 12.1153L5.03906 15.6239V13.5192H0.234375V19.8567C0.234375 20.3817 0.646875 20.8599 1.17188 20.8599H3.75C3.85781 20.8599 3.96445 20.7239 3.98438 20.6255C4.27969 18.931 5.78086 17.7603 7.56328 17.7603C9.3457 17.7603 10.8234 18.9356 11.1187 20.6302C11.1387 20.738 11.2594 20.8599 11.3672 20.8599H15.2344V5.85986L0.234375 5.89619ZM24.6141 18.5712C23.1176 18.5712 21.9059 19.7829 21.9059 21.2794C21.9059 22.7771 23.1176 23.9888 24.6141 23.9888C26.1117 23.9888 27.3234 22.7771 27.3234 21.2794C27.3234 19.7829 26.1117 18.5712 24.6141 18.5712ZM24.6141 22.3177C24.0457 22.3177 23.577 21.8489 23.577 21.2794C23.577 20.711 24.0457 20.2423 24.6141 20.2423C25.1836 20.2423 25.6523 20.711 25.6523 21.2794C25.6523 21.8489 25.1836 22.3177 24.6141 22.3177ZM7.56328 18.6872C6.06563 18.6872 4.85508 19.8978 4.85508 21.3954C4.85508 22.8919 6.06563 24.1036 7.56328 24.1036C9.05977 24.1036 10.2715 22.8919 10.2715 21.3954C10.2715 19.8978 9.05977 18.6872 7.56328 18.6872ZM7.56328 22.4325C6.99492 22.4325 6.52617 21.9638 6.52617 21.3954C6.52617 20.8271 6.99492 20.3583 7.56328 20.3583C8.13164 20.3583 8.60039 20.8271 8.60039 21.3954C8.60039 21.9638 8.13164 22.4325 7.56328 22.4325Z" fill="currentColor"></path>
  </symbol>
  <symbol fill="none" xmlns="http://www.w3.org/2000/svg" viewBox="0 0 28 28" id="ic_email">
    <path d="M28.0044 16.1442L24.3906 12.3905L28.0044 9.27551V16.1442Z" fill="currentColor"></path>
    <path d="M3.61813 12.3905L0 16.1486V9.27551L3.61813 12.3905Z" fill="currentColor"></path>
    <path d="M28 19.5563V23.0125C28 23.8482 27.3219 24.5263 26.4862 24.5263H1.51375C0.67807 24.5263 0 23.8482 0 23.0125V19.5563L5.41182 13.9387L11.5938 19.263C12.2369 19.8144 13.0899 20.1207 14 20.1207C14.9101 20.1207 15.7675 19.8144 16.4106 19.263L22.5881 13.9387L28 19.5563Z" fill="currentColor"></path>
    <path d="M28 4.98313V6.49688L14.7961 17.8719C14.3718 18.2394 13.6281 18.2394 13.2037 17.8719L0 6.49688V4.98313C0 4.14756 0.678016 3.47375 1.51375 3.47375H26.4862C27.3219 3.47375 28 4.14756 28 4.98313Z" fill="currentColor"></path>
  </symbol>
  <symbol fill="none" xmlns="http://www.w3.org/2000/svg" viewBox="0 0 30 30" id="ic_favorite">
    <path fill-rule="evenodd" clip-rule="evenodd" d="M15 7.50042C12.7507 4.87915 8.99221 4.06906 6.17404 6.46936C3.35585 8.86966 2.95909 12.8828 5.17222 15.7217C7.0123 18.0819 12.581 23.0601 14.4061 24.6713C14.6102 24.8516 14.7124 24.9417 14.8315 24.9771C14.9354 25.0079 15.0491 25.0079 15.1531 24.9771C15.2722 24.9417 15.3742 24.8516 15.5785 24.6713C17.4036 23.0601 22.9722 18.0819 24.8124 15.7217C27.0255 12.8828 26.6771 8.84441 23.8105 6.46936C20.9439 4.09431 17.2492 4.87915 15 7.50042Z" stroke="currentColor" stroke-width="2" stroke-linecap="round" stroke-linejoin="round"></path>
  </symbol>
  <symbol fill="none" xmlns="http://www.w3.org/2000/svg" viewBox="0 0 22 22" id="ic_favorite_a">
    <path fill-rule="evenodd" clip-rule="evenodd" d="M11 5.49995C9.35055 3.57768 6.59429 2.98362 4.52763 4.74384C2.46096 6.50406 2.17 9.44703 3.79296 11.5289C5.14235 13.2597 9.22607 16.9104 10.5645 18.0919C10.7142 18.2241 10.7891 18.2902 10.8764 18.3162C10.9526 18.3388 11.036 18.3388 11.1123 18.3162C11.1996 18.2902 11.2744 18.2241 11.4242 18.0919C12.7627 16.9104 16.8463 13.2597 18.1957 11.5289C19.8187 9.44703 19.5632 6.48554 17.461 4.74384C15.3588 3.00213 12.6494 3.57768 11 5.49995Z" fill="currentColor"></path>
  </symbol>
  <symbol fill="none" xmlns="http://www.w3.org/2000/svg" viewBox="0 0 20 20" id="ic_file">
    <path d="M14.7816 0H8.13641H7.62172L7.25789 0.363828L2.22715 5.39461L1.86328 5.75844V6.27312V16.6447C1.86328 18.4948 3.36828 20 5.21859 20H14.7816C16.6316 20 18.1366 18.4948 18.1366 16.6447V3.35527C18.1366 1.505 16.6316 0 14.7816 0ZM16.8942 16.6447C16.8942 17.8118 15.9484 18.7577 14.7816 18.7577H5.21859C4.05152 18.7577 3.10566 17.8118 3.10566 16.6447V6.27309H6.37586C7.34789 6.27309 8.13641 5.48484 8.13641 4.51254V1.24234H14.7816C15.9484 1.24234 16.8942 2.1882 16.8942 3.35527V16.6447Z" fill="currentColor"></path>
    <path d="M14.329 3.63965H10.8379V7.13078H14.329V3.63965Z" fill="currentColor"></path>
    <path d="M14.3279 9.08545H5.66992V10.0629H14.3279V9.08545Z" fill="currentColor"></path>
    <path d="M14.3279 11.8784H5.66992V12.8559H14.3279V11.8784Z" fill="currentColor"></path>
    <path d="M14.3279 14.6714H5.66992V15.6489H14.3279V14.6714Z" fill="currentColor"></path>
  </symbol>
  <symbol fill="none" xmlns="http://www.w3.org/2000/svg" viewBox="0 0 22 22" id="ic_filter">
    <path fill-rule="evenodd" clip-rule="evenodd" d="M9.08265 3.6666C9.11105 3.66665 9.1395 3.6667 9.16797 3.6667C9.19648 3.6667 9.22489 3.66665 9.25331 3.6666C9.59129 3.66604 9.92349 3.66549 10.2194 3.74478C11.0103 3.95669 11.6279 4.5744 11.8399 5.36524C11.9192 5.66117 11.9186 5.99338 11.9181 6.33137C11.9181 6.35978 11.918 6.38823 11.918 6.4167H19.2513C19.7576 6.4167 20.168 6.8271 20.168 7.33336C20.168 7.83962 19.7576 8.25003 19.2513 8.25003H11.918C11.918 8.2785 11.9181 8.30695 11.9181 8.33535C11.9186 8.67335 11.9192 9.00556 11.8399 9.30153C11.6279 10.0923 11.0103 10.7101 10.2194 10.9219C9.92349 11.0012 9.59129 11.0007 9.25331 11.0001C9.22489 11.0001 9.19648 11 9.16797 11C9.1395 11 9.11105 11.0001 9.08265 11.0001C8.74465 11.0007 8.41244 11.0012 8.11651 10.9219C7.32567 10.7101 6.70796 10.0923 6.49606 9.30153C6.41676 9.00555 6.41731 8.67335 6.41788 8.33535C6.41792 8.30695 6.41797 8.27849 6.41797 8.25003H4.58464C4.07838 8.25003 3.66797 7.83962 3.66797 7.33336C3.66797 6.8271 4.07838 6.4167 4.58464 6.4167H6.41797C6.41797 6.38823 6.41792 6.35978 6.41788 6.33137C6.41731 5.99338 6.41676 5.66117 6.49606 5.36524C6.70796 4.5744 7.32567 3.95669 8.11651 3.74478C8.41244 3.66549 8.74465 3.66604 9.08265 3.6666ZM8.70836 5.50494C8.61059 5.50939 8.58758 5.51657 8.59101 5.51564C8.43284 5.55803 8.3093 5.68157 8.26692 5.83974C8.26615 5.84296 8.26013 5.87112 8.25621 5.95708C8.25152 6.05978 8.2513 6.19527 8.2513 6.4167V8.25003C8.2513 8.47145 8.25152 8.60694 8.25621 8.70964C8.26066 8.80741 8.26784 8.83041 8.26692 8.82699C8.3093 8.98515 8.43284 9.1087 8.59101 9.15108C8.58758 9.15016 8.61059 9.15733 8.70836 9.16179C8.81105 9.16648 8.94654 9.16669 9.16797 9.16669C9.38944 9.16669 9.52492 9.16648 9.62759 9.16179C9.7253 9.15733 9.74831 9.15016 9.74492 9.15108C9.90314 9.1087 10.0266 8.98515 10.0691 8.82699C10.0681 8.83041 10.0753 8.80741 10.0797 8.70964C10.0845 8.60694 10.0846 8.47145 10.0846 8.25003V6.4167C10.0846 6.19527 10.0845 6.05978 10.0797 5.95708C10.0753 5.85932 10.0681 5.83631 10.0691 5.83974M8.70836 5.50494C8.81105 5.50025 8.94654 5.50003 9.16797 5.50003L8.70836 5.50494ZM9.16797 5.50003C9.38944 5.50003 9.52492 5.50025 9.62759 5.50494L9.16797 5.50003ZM9.62759 5.50494C9.71357 5.50885 9.74171 5.51487 9.74492 5.51564L9.62759 5.50494ZM14.5826 10.9999C14.611 11 14.6395 11 14.668 11C14.6965 11 14.7249 11 14.7533 10.9999C15.0913 10.9994 15.4235 10.9988 15.7194 11.0781C16.5103 11.2901 17.1279 11.9077 17.3399 12.6986C17.4192 12.9945 17.4186 13.3267 17.4181 13.6647C17.4181 13.6931 17.418 13.7215 17.418 13.75H19.2513C19.7576 13.75 20.168 14.1604 20.168 14.6667C20.168 15.173 19.7576 15.5834 19.2513 15.5834H17.418C17.418 15.6119 17.4181 15.6403 17.4181 15.6687C17.4186 16.0067 17.4192 16.3389 17.3399 16.6349C17.1279 17.4257 16.5103 18.0434 15.7194 18.2553C15.4235 18.3345 15.0913 18.334 14.7533 18.3334C14.7249 18.3334 14.6965 18.3334 14.668 18.3334C14.6395 18.3334 14.611 18.3334 14.5826 18.3334C14.2447 18.334 13.9125 18.3345 13.6166 18.2553C12.8257 18.0434 12.208 17.4257 11.9961 16.6349C11.9168 16.3389 11.9173 16.0067 11.9179 15.6687C11.9179 15.6403 11.918 15.6119 11.918 15.5834H4.58464C4.07838 15.5834 3.66797 15.173 3.66797 14.6667C3.66797 14.1604 4.07838 13.75 4.58464 13.75H11.918C11.918 13.7216 11.9179 13.6931 11.9179 13.6647C11.9173 13.3267 11.9168 12.9945 11.9961 12.6986C12.208 11.9077 12.8257 11.2901 13.6166 11.0781C13.9125 10.9988 14.2447 10.9994 14.5826 10.9999ZM14.2084 12.8383C14.1106 12.8427 14.0876 12.8499 14.091 12.8489C13.9328 12.8914 13.8093 13.0149 13.7669 13.1731C13.7678 13.1697 13.7607 13.1927 13.7563 13.2904C13.7515 13.3931 13.7513 13.5286 13.7513 13.75V15.5834C13.7513 15.8048 13.7515 15.9403 13.7563 16.043C13.7607 16.1408 13.7678 16.1638 13.7669 16.1603C13.8093 16.3185 13.9328 16.442 14.091 16.4844C14.0876 16.4835 14.1106 16.4907 14.2084 16.4952C14.311 16.4998 14.4465 16.5 14.668 16.5C14.8894 16.5 15.0249 16.4998 15.1276 16.4952C15.2253 16.4907 15.2483 16.4835 15.2449 16.4844C15.4031 16.442 15.5266 16.3185 15.5691 16.1603C15.5681 16.1638 15.5753 16.1408 15.5797 16.043C15.5845 15.9403 15.5846 15.8048 15.5846 15.5834V13.75C15.5846 13.5286 15.5845 13.3931 15.5797 13.2904C15.5753 13.1927 15.5681 13.1697 15.5691 13.1731C15.5266 13.0149 15.4031 12.8914 15.2449 12.8489C15.2483 12.8499 15.2253 12.8427 15.1276 12.8383C15.0249 12.8335 14.8894 12.8334 14.668 12.8334C14.4465 12.8334 14.311 12.8335 14.2084 12.8383Z" fill="currentColor"></path>
  </symbol>
  <symbol fill="none" xmlns="http://www.w3.org/2000/svg" viewBox="0 0 18 18" id="ic_grid">
    <path fill-rule="evenodd" clip-rule="evenodd" d="M1.125 1.125H5.325V5.325H1.125V1.125ZM12.6758 1.125H16.8758V5.325H12.6758V1.125ZM11.1005 1.125H6.90051V5.325H11.1005V1.125ZM1.125 6.9H5.325V11.1H1.125V6.9ZM16.8758 6.90002H12.6758V11.1H16.8758V6.90002ZM6.90051 6.9H11.1005V11.1H6.90051V6.9ZM5.325 12.675H1.125V16.875H5.325V12.675ZM12.6758 12.675H16.8758V16.875H12.6758V12.675ZM11.1005 12.675H6.90051V16.875H11.1005V12.675Z" fill="currentColor"></path>
  </symbol>
  <symbol fill="none" xmlns="http://www.w3.org/2000/svg" viewBox="0 0 14 15" id="ic_home">
    <path d="M12.6605 7.08563L7.4105 1.83563C7.35628 1.78096 7.29176 1.73756 7.22067 1.70795C7.14959 1.67833 7.07334 1.66309 6.99634 1.66309C6.91933 1.66309 6.84309 1.67833 6.772 1.70795C6.70092 1.73756 6.6364 1.78096 6.58217 1.83563L1.33217 7.08563C1.25123 7.16767 1.1964 7.27183 1.1746 7.38499C1.15279 7.49815 1.165 7.61524 1.20967 7.72147C1.25343 7.828 1.32775 7.91919 1.42325 7.98355C1.51876 8.04791 1.63117 8.08256 1.74634 8.08313H2.32967V12.3415C2.34031 12.6143 2.4586 12.8719 2.65866 13.0577C2.85873 13.2436 3.12427 13.3426 3.39717 13.3331H4.95467C5.10938 13.3331 5.25775 13.2717 5.36715 13.1623C5.47655 13.0529 5.538 12.9045 5.538 12.7498V9.89147C5.538 9.73676 5.59946 9.58839 5.70886 9.47899C5.81826 9.36959 5.96663 9.30814 6.12134 9.30814H7.87134C8.02605 9.30814 8.17442 9.36959 8.28382 9.47899C8.39321 9.58839 8.45467 9.73676 8.45467 9.89147V12.7498C8.45467 12.9045 8.51613 13.0529 8.62553 13.1623C8.73492 13.2717 8.88329 13.3331 9.038 13.3331H10.5955C10.8684 13.3426 11.1339 13.2436 11.334 13.0577C11.5341 12.8719 11.6524 12.6143 11.663 12.3415V8.08313H12.2463C12.3615 8.08256 12.4739 8.04791 12.5694 7.98355C12.6649 7.91919 12.7392 7.828 12.783 7.72147C12.8277 7.61524 12.8399 7.49815 12.8181 7.38499C12.7963 7.27183 12.7414 7.16767 12.6605 7.08563Z" fill="currentColor"></path>
  </symbol>
  <symbol fill="none" xmlns="http://www.w3.org/2000/svg" viewBox="0 0 24 24" id="ic_instagram">
    <path d="M7.56563 2.00977C4.50092 2.00977 2.01562 4.49506 2.01562 7.55977V16.4398C2.01562 19.5045 4.50092 21.9898 7.56563 21.9898H16.4456C19.5103 21.9898 21.9956 19.5045 21.9956 16.4398V7.55977C21.9956 4.49506 19.5103 2.00977 16.4456 2.00977H7.56563ZM18.6656 4.22977C19.2783 4.22977 19.7756 4.72705 19.7756 5.33977C19.7756 5.95249 19.2783 6.44977 18.6656 6.44977C18.0529 6.44977 17.5556 5.95249 17.5556 5.33977C17.5556 4.72705 18.0529 4.22977 18.6656 4.22977ZM12.0056 6.44977C15.0703 6.44977 17.5556 8.93506 17.5556 11.9998C17.5556 15.0645 15.0703 17.5498 12.0056 17.5498C8.94092 17.5498 6.45563 15.0645 6.45563 11.9998C6.45563 8.93506 8.94092 6.44977 12.0056 6.44977ZM12.0056 8.66977C10.1665 8.66977 8.67562 10.1607 8.67562 11.9998C8.67562 13.8389 10.1665 15.3298 12.0056 15.3298C13.8447 15.3298 15.3356 13.8389 15.3356 11.9998C15.3356 10.1607 13.8447 8.66977 12.0056 8.66977Z" fill="currentColor"></path>
  </symbol>
  <symbol fill="none" xmlns="http://www.w3.org/2000/svg" viewBox="0 0 18 18" id="ic_list">
    <path d="M17.1027 15.5361H5.06613C4.57004 15.5361 4.16797 15.134 4.16797 14.6379C4.16797 14.1418 4.57004 13.7397 5.06613 13.7397H17.1024C17.5984 13.7397 18.0005 14.1418 18.0005 14.6379C18.0005 15.134 17.5987 15.5361 17.1027 15.5361Z" fill="currentColor"></path>
    <path d="M17.1027 9.89837H5.06613C4.57004 9.89837 4.16797 9.49629 4.16797 9.00021C4.16797 8.50413 4.57004 8.10205 5.06613 8.10205H17.1024C17.5984 8.10205 18.0005 8.50413 18.0005 9.00021C18.0008 9.49629 17.5987 9.89837 17.1027 9.89837Z" fill="currentColor"></path>
    <path d="M17.1027 4.26067H5.06613C4.57004 4.26067 4.16797 3.8586 4.16797 3.36251C4.16797 2.86643 4.57004 2.46436 5.06613 2.46436H17.1024C17.5984 2.46436 18.0005 2.86643 18.0005 3.36251C18.0005 3.8586 17.5987 4.26067 17.1027 4.26067Z" fill="currentColor"></path>
    <path d="M1.20623 4.63804C1.87241 4.63804 2.41245 4.09799 2.41245 3.43181C2.41245 2.76563 1.87241 2.22559 1.20623 2.22559C0.540046 2.22559 0 2.76563 0 3.43181C0 4.09799 0.540046 4.63804 1.20623 4.63804Z" fill="currentColor"></path>
    <path d="M1.20623 10.2064C1.87241 10.2064 2.41245 9.66635 2.41245 9.00017C2.41245 8.33399 1.87241 7.79395 1.20623 7.79395C0.540046 7.79395 0 8.33399 0 9.00017C0 9.66635 0.540046 10.2064 1.20623 10.2064Z" fill="currentColor"></path>
    <path d="M1.20623 15.7748C1.87241 15.7748 2.41245 15.2347 2.41245 14.5685C2.41245 13.9024 1.87241 13.3623 1.20623 13.3623C0.540046 13.3623 0 13.9024 0 14.5685C0 15.2347 0.540046 15.7748 1.20623 15.7748Z" fill="currentColor"></path>
  </symbol>
  <symbol fill="none" xmlns="http://www.w3.org/2000/svg" viewBox="0 0 22 22" id="ic_menu">
    <path d="M3.67188 11.0002H18.3385M3.67188 7.3335H18.3385M3.67188 14.6668H11.0052" stroke="currentColor" stroke-width="1.6" stroke-linecap="round" stroke-linejoin="round"></path>
  </symbol>
  <symbol fill="none" xmlns="http://www.w3.org/2000/svg" viewBox="0 0 20 20" id="ic_minus">
    <path fill-rule="evenodd" clip-rule="evenodd" d="M10 18.75C5.1675 18.75 1.25 14.8313 1.25 10C1.25 5.16875 5.1675 1.25 10 1.25C14.8325 1.25 18.75 5.16875 18.75 10C18.75 14.8313 14.8325 18.75 10 18.75ZM10 0C4.47688 0 0 4.475 0 10C0 15.525 4.47688 20 10 20C15.5231 20 20 15.525 20 10C20 4.475 15.5231 0 10 0ZM13.75 9.375H10.625C10.9219 9.375 10.3456 9.375 10 9.375C9.65438 9.375 8.94922 9.375 9.375 9.375H6.25C5.90438 9.375 5.625 9.65625 5.625 10C5.625 10.3438 5.90438 10.625 6.25 10.625H9.375C9.20312 10.625 9.65438 10.625 10 10.625C10.3456 10.625 10.7734 10.625 10.625 10.625H13.75C14.0956 10.625 14.375 10.3438 14.375 10C14.375 9.65625 14.0956 9.375 13.75 9.375Z" fill="currentColor"></path>
  </symbol>
  <symbol fill="none" xmlns="http://www.w3.org/2000/svg" viewBox="0 0 24 24" id="ic_odnokl">
    <path d="M12.0017 12.1479C15.3496 12.1479 18.0631 9.43392 18.0631 6.08541C18.063 2.73689 15.3496 0.0234375 12.0017 0.0234375C8.65254 0.0234375 5.93797 2.73689 5.93797 6.08541C5.93792 9.43392 8.65254 12.1479 12.0017 12.1479ZM12.0017 3.10294C13.6484 3.10294 14.9835 4.43803 14.9835 6.08536C14.9835 7.73273 13.6484 9.06778 12.0017 9.06778C10.3532 9.06778 9.01864 7.73273 9.01864 6.08536C9.01864 4.43803 10.3531 3.10294 12.0017 3.10294ZM18.9887 12.8877C18.6472 12.2 17.6993 11.6281 16.439 12.6205C14.7355 13.962 12.0016 13.962 12.0016 13.962C12.0016 13.962 9.26595 13.962 7.56247 12.6205C6.30279 11.6281 5.35545 12.2 5.01336 12.8877C4.4157 14.086 5.08995 14.6655 6.61161 15.6421C7.91103 16.4767 9.69697 16.7883 10.8496 16.9047L9.88704 17.8673C8.53151 19.2222 7.22333 20.5316 6.31512 21.4398C5.77184 21.9825 5.77184 22.8626 6.31512 23.4053L6.47825 23.5696C7.02153 24.1123 7.90109 24.1123 8.44433 23.5696L12.0162 19.9971C13.373 21.3527 14.6811 22.6614 15.5893 23.5696C16.1326 24.1123 17.0121 24.1123 17.5554 23.5696L17.7185 23.4053C18.2618 22.862 18.2618 21.9825 17.7185 21.4392L14.1466 17.8673L13.1817 16.9018C14.3355 16.7825 16.1015 16.4696 17.3904 15.6422C18.9121 14.6655 19.5852 14.0859 18.9887 12.8877Z" fill="currentColor"></path>
  </symbol>
  <symbol fill="none" xmlns="http://www.w3.org/2000/svg" viewBox="0 0 26 26" id="ic_pdf">
    <path d="M19.2156 0H10.5769H9.90749L9.43446 0.472977L2.89485 7.01299L2.42188 7.48597V8.15506V21.6382C2.42188 24.0432 4.37838 26 6.78378 26H19.2156C21.6202 26 23.5767 24.0432 23.5767 21.6382V4.36191C23.5767 1.9565 21.6202 0 19.2156 0ZM21.962 21.6381C21.962 23.1553 20.7324 24.385 19.2156 24.385H6.78378C5.26623 24.385 4.03662 23.1553 4.03662 21.6381V8.15501H8.28782C9.55151 8.15501 10.5769 7.13035 10.5769 5.8663V1.61505H19.2156C20.7324 1.61505 21.962 2.84466 21.962 4.36191V21.6381Z" fill="currentColor"></path>
    <path d="M8.72967 12.8369H7.28093C7.00509 12.8369 6.83984 13.0163 6.83984 13.2851V17.0304C6.83984 17.3548 7.05333 17.5686 7.34974 17.5686C7.63975 17.5686 7.85318 17.3548 7.85318 17.0304V15.8926C7.85318 15.8649 7.86735 15.8511 7.89503 15.8511H8.72967C9.75012 15.8511 10.3642 15.2302 10.3642 14.3474C10.3643 13.4507 9.75723 12.8369 8.72967 12.8369ZM8.66731 14.975H7.89503C7.86735 14.975 7.85318 14.9611 7.85318 14.9338V13.7542C7.85318 13.7265 7.86735 13.7127 7.89503 13.7127H8.66731C9.09489 13.7127 9.35016 13.968 9.35016 14.3474C9.35021 14.7267 9.09489 14.975 8.66731 14.975Z" fill="currentColor"></path>
    <path d="M12.7039 12.8369H11.5934C11.3176 12.8369 11.1523 13.0163 11.1523 13.2851V17.0857C11.1523 17.3548 11.3175 17.5271 11.5934 17.5271H12.7039C13.7038 17.5271 14.325 17.2098 14.5732 16.4443C14.6625 16.1751 14.7114 15.8511 14.7114 15.182C14.7114 14.5129 14.6625 14.1889 14.5732 13.9198C14.325 13.1542 13.7038 12.8369 12.7039 12.8369ZM13.601 16.0926C13.4833 16.4648 13.1457 16.6237 12.6762 16.6237H12.2075C12.1799 16.6237 12.1657 16.6099 12.1657 16.5822V13.7819C12.1657 13.7542 12.1799 13.7404 12.2075 13.7404H12.6762C13.1457 13.7404 13.4833 13.8992 13.601 14.2715C13.6492 14.4304 13.6832 14.7062 13.6832 15.182C13.6832 15.6579 13.6492 15.9337 13.601 16.0926Z" fill="currentColor"></path>
    <path d="M18.3385 12.8369H16.0629C15.787 12.8369 15.6211 13.0163 15.6211 13.2851V17.0304C15.6211 17.3548 15.8353 17.5686 16.1317 17.5686C16.421 17.5686 16.6351 17.3548 16.6351 17.0304V15.6922C16.6351 15.6649 16.6486 15.6511 16.6763 15.6511H18.001C18.2974 15.6511 18.4697 15.4718 18.4697 15.2164C18.4697 14.9611 18.2974 14.7821 18.001 14.7821H16.6763C16.6486 14.7821 16.6351 14.7683 16.6351 14.7406V13.7542C16.6351 13.7265 16.6486 13.7127 16.6763 13.7127H18.3385C18.6215 13.7127 18.808 13.5266 18.808 13.2784C18.8079 13.023 18.6214 12.8369 18.3385 12.8369Z" fill="currentColor"></path>
  </symbol>
  <symbol fill="none" xmlns="http://www.w3.org/2000/svg" viewBox="0 0 28 28" id="ic_phone">
    <path d="M18.1489 16.9723L17.6175 17.5317C17.6175 17.5317 16.3544 18.8615 12.9069 15.2319C9.45947 11.6023 10.7225 10.2726 10.7225 10.2726L11.0571 9.9203C11.8814 9.05245 11.9591 7.65913 11.2399 6.64195L9.7688 4.56121C8.87866 3.30225 7.15862 3.13594 6.13836 4.21008L4.30716 6.138C3.80127 6.6706 3.46226 7.36103 3.50337 8.12693C3.60854 10.0864 4.44583 14.3022 9.11792 19.2211C14.0724 24.4372 18.7213 24.6446 20.6223 24.4569C21.2236 24.3976 21.7465 24.0733 22.1679 23.6297L23.8253 21.8848C24.944 20.707 24.6286 18.6879 23.1972 17.864L20.9683 16.581C20.0284 16.04 18.8834 16.1989 18.1489 16.9723Z" fill="currentColor"></path>
    <path d="M15.4642 2.19281C15.5414 1.71577 15.9923 1.39218 16.4694 1.4694C16.4989 1.47506 16.594 1.49281 16.6437 1.5039C16.7433 1.52607 16.8822 1.5602 17.0553 1.61063C17.4016 1.71148 17.8853 1.87763 18.4658 2.14378C19.6281 2.67666 21.1749 3.60883 22.78 5.21393C24.3851 6.81903 25.3173 8.36581 25.8501 9.52814C26.1163 10.1087 26.2825 10.5924 26.3833 10.9386C26.4337 11.1118 26.4678 11.2506 26.49 11.3502C26.5011 11.4 26.5093 11.4399 26.5149 11.4695L26.5216 11.5059C26.5987 11.9829 26.2781 12.4526 25.8011 12.5298C25.3254 12.6068 24.8773 12.2847 24.7982 11.81C24.7958 11.7971 24.789 11.7629 24.7819 11.7306C24.7674 11.666 24.7426 11.5635 24.7031 11.428C24.6242 11.157 24.4871 10.7541 24.2593 10.2575C23.8046 9.26543 22.9867 7.89555 21.5425 6.45137C20.0984 5.0072 18.7285 4.18938 17.7365 3.73457C17.2399 3.50689 16.837 3.36977 16.5659 3.29081C16.4304 3.25134 16.2601 3.21225 16.1955 3.19786C15.7206 3.11873 15.3872 2.66849 15.4642 2.19281Z" fill="currentColor"></path>
    <path fill-rule="evenodd" clip-rule="evenodd" d="M15.737 6.21786C15.8698 5.7532 16.3541 5.48414 16.8187 5.6169L16.5784 6.45824C16.8187 5.6169 16.8187 5.6169 16.8187 5.6169L16.8205 5.61739L16.8222 5.6179L16.8261 5.61903L16.8352 5.62174L16.8583 5.62893C16.8758 5.63455 16.8978 5.64188 16.924 5.65117C16.9764 5.66977 17.0456 5.69621 17.1306 5.73261C17.3006 5.80545 17.5327 5.91794 17.8181 6.08677C18.3891 6.42473 19.1686 6.98611 20.0845 7.90191C21.0003 8.81772 21.5616 9.59726 21.8996 10.1683C22.0684 10.4536 22.1809 10.6858 22.2538 10.8558C22.2902 10.9407 22.3167 11.01 22.3352 11.0624C22.3445 11.0886 22.3518 11.1105 22.3575 11.1281L22.3646 11.1512L22.3673 11.1602L22.3684 11.1641L22.3689 11.1659C22.3689 11.1659 22.3695 11.1676 21.5281 11.408L22.3695 11.1676C22.5023 11.6323 22.2331 12.1165 21.7685 12.2493C21.3078 12.3809 20.8278 12.1176 20.6902 11.6602L20.6859 11.6476C20.6797 11.63 20.6669 11.5955 20.6453 11.5451C20.6021 11.4444 20.5238 11.2796 20.3936 11.0596C20.1335 10.6201 19.6636 9.95596 18.847 9.13934C18.0304 8.32274 17.3663 7.85292 16.9268 7.59279C16.7067 7.46256 16.542 7.38428 16.4412 7.34111C16.3908 7.31952 16.3563 7.30664 16.3388 7.30042L16.3262 7.29612C15.8688 7.15859 15.6054 6.67856 15.737 6.21786Z" fill="currentColor"></path>
  </symbol>
  <symbol fill="none" xmlns="http://www.w3.org/2000/svg" viewBox="0 0 20 20" id="ic_plus">
    <path fill-rule="evenodd" clip-rule="evenodd" d="M10 18.75C5.1675 18.75 1.25 14.8313 1.25 10C1.25 5.16875 5.1675 1.25 10 1.25C14.8325 1.25 18.75 5.16875 18.75 10C18.75 14.8313 14.8325 18.75 10 18.75ZM10 0C4.47688 0 0 4.475 0 10C0 15.525 4.47688 20 10 20C15.5231 20 20 15.525 20 10C20 4.475 15.5231 0 10 0ZM13.75 9.375H10.625V6.25C10.625 5.90625 10.3456 5.625 10 5.625C9.65438 5.625 9.375 5.90625 9.375 6.25V9.375H6.25C5.90438 9.375 5.625 9.65625 5.625 10C5.625 10.3438 5.90438 10.625 6.25 10.625H9.375V13.75C9.375 14.0938 9.65438 14.375 10 14.375C10.3456 14.375 10.625 14.0938 10.625 13.75V10.625H13.75C14.0956 10.625 14.375 10.3438 14.375 10C14.375 9.65625 14.0956 9.375 13.75 9.375Z" fill="currentColor"></path>
  </symbol>
  <symbol fill="none" xmlns="http://www.w3.org/2000/svg" viewBox="0 0 90 90" id="ic_sale">
    <path d="M32.377 32.4937H32.4191M57.6209 57.5062H57.663M61.8282 28.325L28.1697 61.675M87.0721 45C87.0721 68.0232 68.2351 86.6875 44.999 86.6875C21.7626 86.6875 2.92578 68.0232 2.92578 45C2.92578 21.9766 21.7626 3.3125 44.999 3.3125C68.2351 3.3125 87.0721 21.9766 87.0721 45ZM34.4807 32.4937C34.4807 33.6449 33.5388 34.5781 32.377 34.5781C31.2152 34.5781 30.2733 33.6449 30.2733 32.4937C30.2733 31.3426 31.2152 30.4094 32.377 30.4094C33.5388 30.4094 34.4807 31.3426 34.4807 32.4937ZM59.7246 57.5062C59.7246 58.6572 58.7825 59.5906 57.6209 59.5906C56.4593 59.5906 55.5172 58.6572 55.5172 57.5062C55.5172 56.3553 56.4593 55.4219 57.6209 55.4219C58.7825 55.4219 59.7246 56.3553 59.7246 57.5062Z" stroke="currentColor" stroke-width="6" stroke-linecap="round" stroke-linejoin="round"></path>
  </symbol>
  <symbol fill="none" xmlns="http://www.w3.org/2000/svg" viewBox="0 0 30 30" id="ic_search">
    <path d="M20.8406 20.8015L26.25 26.25M23.75 13.75C23.75 19.2729 19.2729 23.75 13.75 23.75C8.22715 23.75 3.75 19.2729 3.75 13.75C3.75 8.22715 8.22715 3.75 13.75 3.75C19.2729 3.75 23.75 8.22715 23.75 13.75Z" stroke="currentColor" stroke-width="2" stroke-linecap="round" stroke-linejoin="round"></path>
  </symbol>
  <symbol fill="none" xmlns="http://www.w3.org/2000/svg" viewBox="0 0 24 24" id="ic_support">
    <path d="M22.7948 9.18984C22.6401 5.0632 19.8687 1.60655 16.0913 0.431063V7.26525C17.6553 7.65675 18.8156 9.06787 18.8156 10.7535C18.8156 12.7415 17.2038 14.3534 15.2157 14.3534C15.0462 14.3534 14.8805 14.3374 14.7174 14.315C14.6201 14.5981 14.5 14.8862 14.3465 15.1743C13.857 16.0921 13.0406 16.9925 11.8058 17.5527C11.2672 17.7975 10.6447 17.9685 9.95032 18.0631C9.76751 18.4568 9.37146 18.7316 8.90861 18.7316H7.3503C6.71487 18.7316 6.1999 18.2167 6.1999 17.5815C6.1999 16.9454 6.71487 16.4304 7.3503 16.4304H8.90861C9.29205 16.4304 9.62918 16.6197 9.83819 16.9081C10.8583 16.7637 11.615 16.4125 12.1885 15.969C12.9148 15.4054 13.3564 14.6715 13.6027 13.9688C12.4257 13.3766 11.6157 12.1612 11.6157 10.7535C11.6157 9.13819 12.6799 7.77112 14.1454 7.31541V0.0425625C13.8509 0.0152344 13.5526 0 13.2508 0C7.97477 0 3.69799 4.27641 3.69682 9.55247C2.98497 10.9229 1.27774 14.4035 1.27774 14.4035C1.14663 14.6657 1.14171 14.9732 1.26447 15.2397C1.38719 15.5061 1.624 15.7018 1.90825 15.7733L3.46957 16.164C3.46957 16.164 4.26461 19.7548 4.4463 20.5882C4.72071 21.85 5.1289 22.1233 6.32229 22.1233C7.5168 22.1233 8.92872 21.7368 8.92872 21.7368V24H19.1645V20.4175C19.1645 19.1208 19.5218 17.4937 20.5296 16.2772C22.5565 13.8311 22.9506 11.214 22.7948 9.18984Z" fill="currentColor"></path>
  </symbol>
  <symbol fill="none" xmlns="http://www.w3.org/2000/svg" viewBox="0 0 24 24" id="ic_tg">
    <path d="M3.34072 10.8316C9.49904 8.1224 17.4684 4.81931 18.5685 4.36214C21.4541 3.16556 22.3395 3.39488 21.898 6.0448C21.581 7.94943 20.6661 14.2552 19.937 18.1801C19.5044 20.5076 18.5337 20.7835 17.0073 19.7766C16.2733 19.2919 12.5684 16.8419 11.7643 16.2667C11.0303 15.7424 10.0179 15.1118 11.2875 13.8696C11.7393 13.4271 14.7009 10.5993 17.0083 8.39827C17.3106 8.10917 16.9309 7.63436 16.582 7.86613C13.472 9.92853 9.15996 12.7911 8.61116 13.164C7.78208 13.727 6.98583 13.9852 5.5565 13.5746C4.47654 13.2645 3.42157 12.8945 3.01095 12.7534C1.42972 12.2105 1.80506 11.5073 3.34072 10.8316Z" fill="currentColor"></path>
  </symbol>
  <symbol fill="none" xmlns="http://www.w3.org/2000/svg" viewBox="0 0 14 16" id="ic_video_play">
    <path d="M12.6879 7.1583C13.3013 7.5518 13.3013 8.4482 12.6879 8.8417L2.03995 15.6724C1.37439 16.0993 0.499999 15.6214 0.499999 14.8307L0.5 1.16932C0.5 0.378589 1.37439 -0.0993326 2.03995 0.327623L12.6879 7.1583Z" fill="currentColor"></path>
  </symbol>
  <symbol fill="none" xmlns="http://www.w3.org/2000/svg" viewBox="0 0 20 20" id="ic_view">
    <path fill-rule="evenodd" clip-rule="evenodd" d="M7.81726 10.0003C7.81726 11.2034 8.79462 12.1808 9.99778 12.1808C11.2009 12.1808 12.1783 11.2034 12.1783 10.0003V9.98215C11.9455 10.2183 11.6261 10.3637 11.2697 10.3637C10.5681 10.3637 9.99778 9.79315 9.99778 9.09175C9.99778 8.58671 10.2955 8.14683 10.721 7.94327C10.4957 7.86339 10.2523 7.81979 9.99778 7.81979C8.79462 7.81975 7.81726 8.79727 7.81726 10.0003ZM18.2329 8.76091C16.8807 7.04211 13.5884 4.18555 10.0013 4.18555C6.41082 4.18555 3.11482 7.04215 1.76262 8.76091C1.45742 9.15347 1.29026 9.57867 1.2793 10.0003C1.2903 10.4219 1.45742 10.8471 1.76262 11.2396C3.11486 12.9587 6.40722 15.8149 9.99778 15.8149C13.5883 15.8149 16.8807 12.9587 18.2329 11.2396C18.5416 10.8471 18.7088 10.4219 18.7198 10.0003C18.7088 9.57867 18.5416 9.15347 18.2329 8.76091ZM9.99778 13.6344C7.9919 13.6344 6.36358 12.0063 6.36358 10.0003C6.36358 7.99423 7.9919 6.36607 9.99778 6.36607C12.0036 6.36607 13.6319 7.99423 13.6319 10.0003C13.6319 12.0062 12.0036 13.6344 9.99778 13.6344Z" fill="currentColor"></path>
  </symbol>
  <symbol fill="none" xmlns="http://www.w3.org/2000/svg" viewBox="0 0 24 24" id="ic_vk">
    <path d="M23.453 5.78376C23.183 6.63276 22.819 7.37176 22.363 8.04276L22.382 8.01276C21.934 8.75942 21.399 9.62209 20.777 10.6008C20.2437 11.3734 19.9613 11.7734 19.93 11.8008C19.792 11.9738 19.696 12.1858 19.663 12.4188L19.662 12.4258C19.689 12.6378 19.787 12.8228 19.93 12.9608L20.33 13.4068C22.47 15.6061 23.6737 17.1221 23.941 17.9548C23.976 18.0468 23.996 18.1528 23.996 18.2638C23.996 18.4578 23.934 18.6368 23.829 18.7838L23.831 18.7808C23.655 18.9618 23.409 19.0738 23.137 19.0738C23.107 19.0738 23.076 19.0728 23.047 19.0698H23.051H20.42C20.419 19.0698 20.417 19.0698 20.415 19.0698C20.078 19.0698 19.768 18.9518 19.525 18.7558L19.528 18.7578C19.174 18.4668 18.859 18.1518 18.577 17.8098L18.568 17.7978C18.1073 17.2771 17.6987 16.8388 17.342 16.4828C16.154 15.3534 15.2773 14.7888 14.712 14.7888C14.691 14.7868 14.667 14.7858 14.642 14.7858C14.477 14.7858 14.323 14.8368 14.196 14.9238L14.199 14.9218C14.095 15.0518 14.032 15.2198 14.032 15.4008C14.032 15.4368 14.034 15.4708 14.039 15.5058V15.5018C14.012 15.8158 13.996 16.1808 13.996 16.5498C13.996 16.6688 13.998 16.7868 14.001 16.9048V16.8878V18.0468C14.011 18.0938 14.017 18.1478 14.017 18.2028C14.017 18.4448 13.907 18.6608 13.735 18.8038L13.734 18.8048C13.347 18.9818 12.895 19.0858 12.418 19.0858C12.316 19.0858 12.216 19.0808 12.117 19.0718L12.13 19.0728C10.556 19.0428 9.096 18.5818 7.855 17.8048L7.89 17.8248C6.379 16.9068 5.127 15.7118 4.173 14.2998L4.146 14.2578C3.24 13.0558 2.395 11.6978 1.675 10.2658L1.605 10.1118C1.184 9.30976 0.748 8.32376 0.372 7.30976L0.312 7.12476C0.159 6.66876 0.048 6.13876 0.002 5.58976L0 5.56476C0 5.05942 0.297333 4.80676 0.892 4.80676H3.522C3.546 4.80476 3.574 4.80376 3.603 4.80376C3.851 4.80376 4.08 4.88876 4.261 5.03176L4.259 5.02976C4.459 5.24876 4.607 5.51776 4.68 5.81776L4.683 5.82976C5.167 7.19676 5.68 8.34476 6.27 9.44476L6.203 9.30776C6.685 10.2778 7.218 11.1128 7.826 11.8838L7.803 11.8528C8.33633 12.5074 8.75233 12.8348 9.051 12.8348C9.06 12.8358 9.071 12.8358 9.083 12.8358C9.231 12.8358 9.36 12.7558 9.43 12.6358L9.431 12.6338C9.505 12.4438 9.548 12.2228 9.548 11.9928C9.548 11.9438 9.546 11.8948 9.542 11.8468V11.8528V7.97376C9.521 7.51676 9.409 7.08976 9.222 6.70676L9.23 6.72576C9.106 6.46176 8.957 6.23376 8.78 6.03076L8.783 6.03476C8.619 5.87076 8.507 5.65576 8.472 5.41576L8.471 5.40976C8.471 5.23976 8.549 5.08676 8.671 4.98676L8.672 4.98576C8.793 4.87476 8.955 4.80776 9.132 4.80776H9.14H13.286C13.308 4.80476 13.333 4.80376 13.359 4.80376C13.554 4.80376 13.729 4.89176 13.845 5.02976L13.846 5.03076C13.949 5.21876 14.01 5.44376 14.01 5.68176C14.01 5.71976 14.008 5.75676 14.005 5.79376V5.78876V10.9618C14.003 10.9858 14.002 11.0138 14.002 11.0418C14.002 11.2258 14.053 11.3988 14.141 11.5458L14.139 11.5418C14.212 11.6498 14.334 11.7198 14.472 11.7198C14.648 11.7078 14.809 11.6498 14.944 11.5578L14.941 11.5598C15.213 11.3728 15.447 11.1598 15.65 10.9188L15.654 10.9138C16.261 10.2278 16.821 9.46976 17.309 8.66376L17.348 8.59376C17.692 8.02376 18.064 7.32176 18.401 6.60076L18.463 6.45376L18.909 5.56176C19.064 5.11576 19.48 4.80176 19.969 4.80176C19.988 4.80176 20.007 4.80176 20.026 4.80276H20.023H22.654C23.3647 4.80276 23.6313 5.12976 23.454 5.78376H23.453Z" fill="currentColor"></path>
  </symbol>
</svg>