<svg width="144" height="24" viewBox="0 0 144 24" fill="none" xmlns="http://www.w3.org/2000/svg">
<g id="Group 115">
<path id="Star 1" d="M11.1033 1.81699C11.4701 1.07374 12.5299 1.07374 12.8967 1.81699L15.294 6.67446C15.4397 6.9696 15.7213 7.17417 16.047 7.2215L21.4075 8.00043C22.2277 8.11961 22.5552 9.12759 21.9617 9.70612L18.0828 13.4871C17.8471 13.7169 17.7396 14.0479 17.7952 14.3723L18.7109 19.7111C18.851 20.528 17.9936 21.151 17.26 20.7653L12.4653 18.2446C12.174 18.0915 11.826 18.0915 11.5347 18.2446L6.74005 20.7653C6.00642 21.151 5.14899 20.528 5.2891 19.7111L6.20479 14.3723C6.26043 14.0479 6.15288 13.7169 5.91719 13.4871L2.03827 9.70612C1.44476 9.12759 1.77226 8.11961 2.59249 8.00043L7.95302 7.2215C8.27873 7.17417 8.5603 6.9696 8.70596 6.67446L11.1033 1.81699Z" fill="#FFCC00"/>
<path id="Star 3" d="M71.1033 1.81699C71.4701 1.07374 72.5299 1.07374 72.8967 1.81699L75.294 6.67446C75.4397 6.9696 75.7213 7.17417 76.047 7.2215L81.4075 8.00043C82.2277 8.11961 82.5552 9.12759 81.9617 9.70612L78.0828 13.4871C77.8471 13.7169 77.7396 14.0479 77.7952 14.3723L78.7109 19.7111C78.851 20.528 77.9936 21.151 77.26 20.7653L72.4653 18.2446C72.174 18.0915 71.826 18.0915 71.5347 18.2446L66.7401 20.7653C66.0064 21.151 65.149 20.528 65.2891 19.7111L66.2048 14.3723C66.2604 14.0479 66.1529 13.7169 65.9172 13.4871L62.0383 9.70612C61.4448 9.12759 61.7723 8.11961 62.5925 8.00043L67.953 7.2215C68.2787 7.17417 68.5603 6.9696 68.706 6.67446L71.1033 1.81699Z" fill="#FFCC00"/>
<path id="Star 2" d="M41.1033 1.81699C41.4701 1.07374 42.5299 1.07374 42.8967 1.81699L45.294 6.67446C45.4397 6.9696 45.7213 7.17417 46.047 7.2215L51.4075 8.00043C52.2277 8.11961 52.5552 9.12759 51.9617 9.70612L48.0828 13.4871C47.8471 13.7169 47.7396 14.0479 47.7952 14.3723L48.7109 19.7111C48.851 20.528 47.9936 21.151 47.26 20.7653L42.4653 18.2446C42.174 18.0915 41.826 18.0915 41.5347 18.2446L36.7401 20.7653C36.0064 21.151 35.149 20.528 35.2891 19.7111L36.2048 14.3723C36.2604 14.0479 36.1529 13.7169 35.9172 13.4871L32.0383 9.70612C31.4448 9.12759 31.7723 8.11961 32.5925 8.00043L37.953 7.2215C38.2787 7.17417 38.5603 6.9696 38.706 6.67446L41.1033 1.81699Z" fill="#FFCC00"/>
<path id="Star 4" d="M101.103 1.81699C101.47 1.07374 102.53 1.07374 102.897 1.81699L105.294 6.67446C105.44 6.9696 105.721 7.17417 106.047 7.2215L111.408 8.00043C112.228 8.11961 112.555 9.12759 111.962 9.70612L108.083 13.4871C107.847 13.7169 107.74 14.0479 107.795 14.3723L108.711 19.7111C108.851 20.528 107.994 21.151 107.26 20.7653L102.465 18.2446C102.174 18.0915 101.826 18.0915 101.535 18.2446L96.7401 20.7653C96.0064 21.151 95.149 20.528 95.2891 19.7111L96.2048 14.3723C96.2604 14.0479 96.1529 13.7169 95.9172 13.4871L92.0383 9.70612C91.4448 9.12759 91.7723 8.11961 92.5925 8.00043L97.953 7.2215C98.2787 7.17417 98.5603 6.9696 98.706 6.67446L101.103 1.81699Z" fill="#FFCC00"/>
<path id="Star 5" d="M131.103 1.81699C131.47 1.07374 132.53 1.07374 132.897 1.81699L135.294 6.67446C135.44 6.9696 135.721 7.17417 136.047 7.2215L141.408 8.00043C142.228 8.11961 142.555 9.12759 141.962 9.70612L138.083 13.4871C137.847 13.7169 137.74 14.0479 137.795 14.3723L138.711 19.7111C138.851 20.528 137.994 21.151 137.26 20.7653L132.465 18.2446C132.174 18.0915 131.826 18.0915 131.535 18.2446L126.74 20.7653C126.006 21.151 125.149 20.528 125.289 19.7111L126.205 14.3723C126.26 14.0479 126.153 13.7169 125.917 13.4871L122.038 9.70612C121.445 9.12759 121.772 8.11961 122.592 8.00043L127.953 7.2215C128.279 7.17417 128.56 6.9696 128.706 6.67446L131.103 1.81699Z" fill="#FFCC00"/>
</g>
</svg>
